<svg xmlns="http://www.w3.org/2000/svg" width="24" height="24" fill="none" viewBox="0 0 24 24"><path fill="#444" d="m13.626 4 .397.802.316-.316a.8.8 0 0 0-.273-.166l-.045-.013.271.047.152.027.263-.263.07.07.448.449q.17.09.325.195l.312.219.312.219c.342.24.612.55.806.918l.183.346.183.347.002.003.027.012.778.282c.472.17.862.486 1.113.94l.19.341.188.342a.8.8 0 0 0 .223.264l.599.462c.279.216.533.525.768.867q.05.015.1.038c.154.066.336.185.476.388.134.196.182.406.187.588l.417.417-.9.9-.155.074-.67.32c-.423.2-.59.332-.625.371l-.256.275-.255.275a3 3 0 0 0-.34.446l-.203.329-.203.327a2.6 2.6 0 0 1-.863.856l-.659.401c-.018.011-.038.025-.062.088l-.293.767a4.7 4.7 0 0 1-.454.894l-.42.642c-.31.476-.824.792-1.462.745l-.687-.05q-.057-.003-.055-.004l.033-.002a.922.922 0 0 0 .518-.252l-.376-.375-.359.818-.252-.11-.172-.077-.223-.223a1.024 1.024 0 0 1 .474-1.736c.222-.058.458-.041.559-.034l.342.026.1.007.096-.149.21-.32q.147-.224.26-.515l.293-.767c.171-.448.469-.824.89-1.08l.33-.202.33-.2a.6.6 0 0 0 .201-.201l.406-.655q.252-.41.577-.757l.096-.104-.125.041-.375.122q-.446.145-.899.22l-.375.062-.375.06c-.494.08-.965-.02-1.385-.246l-.375-.202-.375-.201a.2.2 0 0 0-.054-.023l-.751.17a2.9 2.9 0 0 1-1.137.033l-.75-.127a1.6 1.6 0 0 0-.461-.01l-.375.048-.375.045c-.14.018-.29.06-.456.136l-.375.172-.375.173c-.577.265-1.179.2-1.69-.115l-.375-.232-.375-.23a.3.3 0 0 0-.054-.027l-.735.142a8 8 0 0 0-.67.157l-.75.21c-.474.131-1.018.087-1.53-.01l-.606-.116H2v-.002l-.086-.015L2 10.825h.194l.092.018.7.133q.294.054.46.056a1 1 0 0 0 .16-.009l.75-.208q.415-.116.832-.196l.375-.071.375-.072.198-.028c.458-.04.888.088 1.262.318l.375.23.295.18.64-.292a3.5 3.5 0 0 1 1.044-.303l.375-.047.375-.046a3.6 3.6 0 0 1 1.039.023l.375.062.375.064q.178.03.363-.011l.75-.17a2.05 2.05 0 0 1 1.445.211l.375.202.375.201c.08.044.108.035.115.034l.375-.061.375-.06q.297-.05.601-.148l.75-.244q.297-.096.602-.14a2.9 2.9 0 0 1-.524-.683l-.189-.342-.188-.341-.005-.009-.007-.004-.032-.013-.389-.142-.39-.14a2 2 0 0 1-1.116-.963l-.183-.346-.183-.348a.6.6 0 0 0-.185-.213l-.311-.219-.313-.218a.7.7 0 0 0-.178-.099l-.543-.094a2 2 0 0 1-.27-.067A1.2 1.2 0 0 1 13 5.969a1.05 1.05 0 0 1-.336-.9c.041-.339.23-.552.314-.635l.106-.106.115-.116.148-.072z"/></svg>