<svg xmlns="http://www.w3.org/2000/svg" width="32" height="32" fill="none" viewBox="0 0 32 32"><path fill="#cf0" fill-rule="evenodd" d="M23.953 7.14a2.85 2.85 0 0 1 2.205 1.73 2.74 2.74 0 0 1-.373 2.737l-12.721 16.14-.56-.438-1.007 1.277-4.412-3.458 9.77-12.395L6.7 11.203l.746-5.474 1.423.214.144-1.053z" clip-rule="evenodd"/><path fill="#222" fill-rule="evenodd" d="M9.905 10.638a.9.9 0 0 1 .445.164q.18.134.253.342.075.209 0 .446-.149.511-.618.613l-.001.007q-.193.669-.937.64a1.2 1.2 0 0 0-.52.104q-.165.06-.298.089-.12.03-.595 0h-.386a2 2 0 0 0-.238.014q-.09.015-.193.045-.09.015-.238.06-.372.105-.743.133a5 5 0 0 0-.252.006l-.051.074q-.135.207-.268.49-.12.268-.119.357 0 .164-.06.283-.103.282-.029.357.012.007.031.013.099 0 .202.002.137.005.274.012.43-.026.965-.012.564.014 1.13.074.58.06 1.086.148.52.09.862.194l.506.149q.268.074.43.252a.7.7 0 0 1 .224.372.67.67 0 0 1-.014.416.6.6 0 0 1-.268.343.6.6 0 0 1-.317.114.7.7 0 0 1-.036.163.6.6 0 0 1-.267.342.6.6 0 0 1-.371.12 2.8 2.8 0 0 1-.595-.15 9 9 0 0 0-.67-.207 3.6 3.6 0 0 0-.64-.135 9 9 0 0 0-.817-.059 20 20 0 0 0-1.204-.03h-.134a1 1 0 0 1-.15-.015 8 8 0 0 0-.563-.003 4.5 4.5 0 0 1-.289.841q-.238.55.387 1.323.214.257.29.308.066.012.13.026.072 0 .175-.021.922-.178 2.022.357.313.148.372.148.163 0 .312.09a1.16 1.16 0 0 1 .431.564q.06.18.015.343a.57.57 0 0 1-.237.342.8.8 0 0 1-.365.126.572.572 0 0 1-.256.493.85.85 0 0 1-.43.134 1.5 1.5 0 0 1-.535-.075 2.3 2.3 0 0 1-.58-.252 1.55 1.55 0 0 0-1.235-.194q-.997.238-1.591-.535a6 6 0 0 0-.18-.218 1.6 1.6 0 0 1-.44-.401 6 6 0 0 0-.208-.253l-.164-.193q-.416-.462-.669-1.547-.103-.417.134-.996.238-.596.268-.893.015-.207-.015-.252-.015-.06-.148-.15a.84.84 0 0 1-.358-.386.95.95 0 0 1-.06-.461.75.75 0 0 1 .21-.401.66.66 0 0 1 .445-.194q.09 0 .164-.133.06-.09.148-.521.075-.283.224-.64.15-.356.387-.788.192-.356.311-.698.075-.223.15-.342a.46.46 0 0 1 .208-.178q.133-.075.37-.09.24-.03.64-.03.669 0 .997-.104A3.4 3.4 0 0 1 7 10.95q.534.03.891-.179.06-.03.238-.089.283-.09.536-.045.255.03.428.153.02-.01.037-.019.06-.03.238-.089a1.1 1.1 0 0 1 .536-.045m17.432-.06q.297 0 .446.015.267.015.536.164l.178.075q.104.045.253.074.669.163 1.011.625.072.094.127.193.3.165.492.426.357.461.284 1.026a.65.65 0 0 1-.224.447.7.7 0 0 1-.416.163.8.8 0 0 1-.446-.104.7.7 0 0 1-.235-.237.6.6 0 0 1-.141.178.7.7 0 0 1-.417.163.8.8 0 0 1-.447-.104.7.7 0 0 1-.311-.401.53.53 0 0 0-.432-.387 4 4 0 0 1-.446-.164 1.2 1.2 0 0 0-.298-.084 5 5 0 0 0-.218.01 1.1 1.1 0 0 0-.341.045.6.6 0 0 0-.224.134 8 8 0 0 0-.237.252q-.284.327-.387.64-.09.31-.06.773.045.446-.119.818-.148.357-.55.803-.46.505-.52.61a.53.53 0 0 0-.09.297q0 .223-.058.327-.075.134-.09.624-.015.238-.03.402 0 .164-.03.238a.4.4 0 0 0 .014.228q.093.054.199.104.179.075.343.164.162.075.311.163.298.193.432.208.238.045.506.104.267.06.579.134.372.09.7.09.311 0 .445.044.372.09.49.089.09.015.27-.03.237-.059.4-.133.061-.03.119-.065.092-.128.199-.282.134-.208.208-.343.09-.149.119-.267a.6.6 0 0 0 .015-.238q0-.134-.044-.312-.03-.149-.06-.268a3 3 0 0 1-.045-.208q-.06-.267-.148-.327l-.017-.007-.068.007q-.239.03-.446.06-.194.03-.297.058-.299.09-.551.03a1 1 0 0 1-.26-.106l-.13.018q-.195.03-.299.058-.296.09-.55.03a.9.9 0 0 1-.4-.207.8.8 0 0 1-.194-.387.74.74 0 0 1 .089-.491.6.6 0 0 1 .208-.253 1 1 0 0 1 .32-.094.9.9 0 0 1 .09-.272.6.6 0 0 1 .209-.253q.134-.075.387-.105l.267-.03q.238-.029.417-.073.208-.03.52-.045.312-.03.625-.03.327-.015.594 0 .268 0 .372.015.581.105.877.43.135.143.234.34.231.11.387.28.312.328.431.952.03.179.074.343.045.149.075.282.148.536.045 1.026-.075.416-.18.61l-.758 1.16q-.09.12-.237.253-.15.133-.327.267a3 3 0 0 1-.372.238 3 3 0 0 1-.372.193 5 5 0 0 1-.521.179q-.209.06-.387.074-.178.03-.356 0a2.4 2.4 0 0 1-.387-.074l-.066-.014-.042.014q-.208.06-.387.074-.179.03-.357 0a2.4 2.4 0 0 1-.387-.074 3.3 3.3 0 0 0-.595-.089q-.446 0-1.1-.15l-.624-.133a2.17 2.17 0 0 1-1.072-.416l-.192-.105q-.12-.06-.328-.148-.892-.417-1.383-1.041-.475-.624-.371-1.25l.074-.683q.03-.46.06-.818.045-.357.103-.624.06-.372.774-1.146.148-.178.238-.282.105-.12.148-.208a1 1 0 0 0 .06-.193q.015-.105.014-.239 0-.312.06-.506.06-.223.06-.46 0-.253.045-.327a1 1 0 0 0 .088-.164q.06-.193.268-.46a4.7 4.7 0 0 1 .79-.835 4.7 4.7 0 0 1 .825-.782q.268-.208.477-.253.165-.06 1.352-.06.462-.015.744 0m-7.093.284a.63.63 0 0 1 .55.015.72.72 0 0 1 .431.609q.015.12.03.357.045.46.133.699.164.386.06.669t-.506.595q-.267.208-.268.268a.6.6 0 0 1-.074.193.8.8 0 0 0-.074.268q0 .12-.134.535a11.5 11.5 0 0 0-.431 2.097q-.075.535-.09.58-.015.03-.014.833 0 .46-.045.788-.03.312-.12.52a.7.7 0 0 1-.252.297.85.85 0 0 1-.371.164q-.135.03-.269.238-.133.207-.222.327a1.3 1.3 0 0 1-.149.193 2 2 0 0 1-.104.12.3.3 0 0 1-.104.088.72.72 0 0 1-.678.03 1 1 0 0 1-.103.038c-.039.058-.07.11-.102.15q-.088.135-.148.194-.06.075-.104.118a.3.3 0 0 1-.104.09q-.61.342-1.28-.475a1.5 1.5 0 0 1-.148-.224 6 6 0 0 1-.148-.253 5 5 0 0 1-.105-.253.6.6 0 0 1-.044-.163q0-.015-.075-.193a.6.6 0 0 1-.06-.283l-.029-.892v-.922a1.4 1.4 0 0 0-.045-.164.8.8 0 0 0-.06-.208l-.192-.58a2 2 0 0 0-.09-.253.9.9 0 0 0-.088-.223 3 3 0 0 0-.134-.238q-.034-.059-.078-.125-.075.234-.186.473a2.7 2.7 0 0 0-.208.594q0 .03-.014.09 0 .044-.015.118-.015.075-.03.134v.089q-.03.12-.044.446v.655q0 .342.014.64.015.281.045.341.194.49-.015.862a.8.8 0 0 1-.282.269.52.52 0 0 1-.342.059.6.6 0 0 1-.245-.082q-.015.012-.034.023a.5.5 0 0 1-.238.064.8.8 0 0 1-.098.288.8.8 0 0 1-.283.267.52.52 0 0 1-.342.06.6.6 0 0 1-.341-.149.95.95 0 0 1-.283-.372q-.149-.312-.209-.877a9 9 0 0 1-.043-1.19q.03-.625.133-1.219.104-.61.283-.997.089-.193.133-.312.045-.118.06-.208.03-.104.03-.193.015-.105.015-.283a2.4 2.4 0 0 0-.016-.297.5.5 0 0 0-.044-.224.5.5 0 0 0-.09-.177q-.059-.09-.163-.21-.966-1.085-.014-2.304.088-.105.163-.223a3 3 0 0 0 .164-.238q.315-.518.63-.639.456-.738.91-.65.107.021.217.087a.55.55 0 0 1 .403-.087q.461.09.997 1.026l.684 1.13.594.997.447.684q.46.609.654 1.368.027.09.056.174.029-.162.058-.313.075-.297.164-.594l.208-.685q.03-.06.06-.253.12-.639.564-1.16a.8.8 0 0 0 .105-.192q.015-.045 0-.18 0-.133-.015-.371-.03-.624.044-.877a.68.68 0 0 1 .358-.387.7.7 0 0 1 .228-.055q.012-.106.033-.178a.68.68 0 0 1 .358-.386.63.63 0 0 1 .55.015l.025.011q.022-.013.045-.026" clip-rule="evenodd"/></svg>