<svg xmlns="http://www.w3.org/2000/svg" width="24" height="24" fill="none" viewBox="0 0 24 24"><rect width="24" height="24" fill="#fff" rx="12"/><path fill="#f04523" d="m18.213 7.193.244.183-.026.035.003.003-.02.02-.38.51c-.296.394-.585.735-.861.971l-.285.245-.286.244q-.238.203-.447.434l-.504.557c-.293.324-.659.55-1.064.689l-.396.135-.265.09-.074.322-.055.23c.272.176.503.41.678.7l.198.332.2.33a.56.56 0 0 0 .192.197l.33.202.328.202q.397.246.745.55l.565.495c.384.337.6.778.676 1.257l.027.177.198.197-.145.144.05.307c.02.134.03.122 0 .053a.9.9 0 0 0-.165-.245l-.416.416.834.312-.161.43-.153.153-.078.078a1.026 1.026 0 0 1-1.26.16c-.306-.185-.421-.472-.442-.52a2.3 2.3 0 0 1-.136-.527l-.129-.825c-.006-.041-.015-.058-.016-.06q0 0-.002-.003l-.566-.495a3.5 3.5 0 0 0-.476-.35l-.656-.405a2.56 2.56 0 0 1-.86-.87l-.199-.332-.2-.331a.2.2 0 0 0-.033-.042l-.24.21q-.344.3-.732.545l-.65.41q-.188.121-.32.284l-.238.292-.237.293q-.319.39-.729.684h.002l-1.647 1.648-.644-.645-.05.866-.15-.009-.381-.021-.269-.27-.04-.04c-.432-.433-.278-.958-.235-1.077.057-.158.14-.273.177-.322.086-.113.194-.22.285-.306l.245-.233.245-.231q.304-.285.667-.541l.31-.22.312-.219q.2-.14.349-.325l.237-.293.238-.292q.344-.421.804-.713l.325-.206.326-.205q.112-.071.218-.15l-.473-.564a4.8 4.8 0 0 1-.543-.8l-.373-.687a.42.42 0 0 0-.159-.169l-.329-.201-.328-.201a12 12 0 0 1-.696-.46l-.31-.219-.311-.22c-.333-.237-.653-.597-.955-.997l-.383-.507-.023-.023.003-.004L6 7.38l.218-.164L7.434 6l.07.07.05.05.04.055.427.563c.266.352.438.515.518.572l.31.22.31.22q.282.2.582.384l.658.402c.372.228.667.54.874.922l.373.688q.14.258.314.464l.061.074a1.72 1.72 0 0 1 1.127-1.222l.396-.135.394-.136a.5.5 0 0 0 .23-.138l.504-.557q.295-.325.63-.611l.571-.49c.105-.09.29-.288.559-.649l.423-.566.043-.059.051-.05.07-.071z"/></svg>