<svg xmlns="http://www.w3.org/2000/svg" width="24" height="24" fill="none" viewBox="0 0 24 24"><rect width="24" height="24" fill="#fff" rx="12"/><path fill="#31a552" d="m18.341 6.019.325.06.183.35.023.042c.117.223.13.447.128.569a1.3 1.3 0 0 1-.037.28 1.5 1.5 0 0 1-.087.252c-.048.11-.11.224-.172.329l-.168.288-.169.288c-.193.33-.444.577-.735.742l-.272.155-.272.154a4 4 0 0 0-.444.29l-.494.374q-.146.11-.245.26l-.365.54a5 5 0 0 1-.48.605l-.214.23-.214.23c.005-.006.007-.01.005-.004a.4.4 0 0 0-.022.097l-.058.43-.059.43c-.058.427-.192.84-.438 1.176l-.38.52a1.66 1.66 0 0 1-.888.629l-.571.165-.073.253-.107.366c-.054.188-.176.527-.455.732-.35.257-.7.138-.915-.025l-.194-.146-.194-.146a8 8 0 0 1-.472-.39l-.232-.206-.232-.207a9 9 0 0 0-.44-.366l-.488-.38c-.342-.268-.558-.676-.659-1.142l-.085-.393-.086-.394a.3.3 0 0 0-.025-.078l-.01-.014-.455-.423a1.4 1.4 0 0 0-.343-.235l-.567-.28c-.437-.216-.728-.708-.928-1.17L5 10.25l.414-.295.705-.904.126.161.313.722c.067.155.122.249.159.3q.016.022.024.028l.264.131.283.14q.369.18.68.47l.456.423c.305.284.496.68.592 1.12l.086.394.085.393.01.033.236.186.244.19q.263.206.514.428l.232.206.232.206q.107.095.202.174l.01-.034.071-.204c.186-.453.506-.74.886-.85l.32-.094.321-.093c.097-.028.127-.065.135-.077l.19-.258.19-.26c.008-.01.039-.057.058-.201l.059-.43.058-.43c.062-.456.222-.897.526-1.224l.213-.23.214-.23q.168-.18.311-.392l.183-.271.182-.27q.265-.39.614-.653l.495-.374q.286-.215.596-.392l.263-.149-.182-.033L17.666 6.2l.484.623.094-.824z"/></svg>