<svg xmlns="http://www.w3.org/2000/svg" width="4" height="50" fill="none" viewBox="0 0 4 50"><path fill="#666" d="M3.006 5.417c.072.554-.117 1.05-.417 1.45l-.278.37-.123.163.115.157.266.37c.287.396.438.88.34 1.395l-.059.221-.123.37-.122.369a3.5 3.5 0 0 0-.14.578l-.112.74q-.054.358-.101.718l-.096.739q-.03.223.009.45l.127.738q.083.48.053.965l-.025.37-.023.37q-.02.303.002.61l.05.738q.027.383.043.765l.032.74q.015.33.054.663l.09.739c.05.414-.008.821-.157 1.207l-.287.739c-.06.153-.087.295-.093.428l-.016.37-.014.369.004.013a.4.4 0 0 0 .062.11l.27.37.268.37c.27.37.434.82.385 1.312l-.035.214-.082.37-.083.369a3.8 3.8 0 0 1-.379.992l-.201.37-.153.28.147.277.194.37.086.186c.152.378.18.782.064 1.18l-.07.198-.152.37-.146.354.323.727.074.195c.126.39.115.794-.025 1.176l-.08.19-.181.37-.155.315.15.316.177.369c.203.425.246.884.117 1.332l-.066.191-.15.37-.148.37a.1.1 0 0 0-.011.036v.006q0 .005.006.02l.25.739c.163.483.134.979-.067 1.44l-.322.738a.75.75 0 0 0-.07.323l.01.37.01.37c.004.117.03.245.09.39l.154.37.156.369c.146.35.229.715.237 1.093l.016.739q.005.26.071.53l.18.739c.123.505.035.997-.2 1.433l-.2.37-.158.29.33.654c.083.165.174.38.206.616.032.237.02.653-.311.996l-.12.123-.085.088-.106.066-.238.148-.47-.736H.512v-.643l.216-.135-.007-.015-.186-.37a1.73 1.73 0 0 1 .026-1.64l.2-.37.2-.37.017-.037q.002-.006.002-.009l-.18-.738a4.4 4.4 0 0 1-.124-.948l-.008-.37-.009-.369a1 1 0 0 0-.087-.385l-.308-.739a3 3 0 0 1-.24-1.087l-.01-.37-.011-.369a2.7 2.7 0 0 1 .231-1.154l.322-.74.01-.024v-.003q0-.004-.003-.01l-.25-.74c-.16-.472-.14-.958.044-1.415l.15-.37.137-.342-.344-.72a1.78 1.78 0 0 1 .008-1.587l.342-.702-.307-.693a1.87 1.87 0 0 1-.022-1.505l.152-.37.131-.318-.175-.334-.196-.369a1.71 1.71 0 0 1 .013-1.659l.402-.739a1.9 1.9 0 0 0 .189-.486l.083-.37.068-.309-.008-.012-.27-.369-.268-.37c-.278-.382-.461-.84-.44-1.353l.015-.37.015-.37q.024-.54.224-1.049l.143-.37.143-.369a.55.55 0 0 0 .04-.271l-.09-.74a11 11 0 0 1-.066-.813l-.032-.74q-.015-.355-.04-.712l-.05-.74a7 7 0 0 1-.003-.867l.023-.37.024-.369q.017-.254-.028-.513l-.127-.739a3.4 3.4 0 0 1-.021-1.028l.048-.37.048-.37q.05-.378.107-.758l.056-.37.056-.37q.07-.453.217-.899l.123-.37.088-.267-.509-.702a1.6 1.6 0 0 1-.316-.954c.005-.375.15-.695.337-.943l.276-.37.277-.369q.031-.044.037-.061l-.043-.336-.047-.37a1.3 1.3 0 0 0-.14-.42L.41 3.77a1.86 1.86 0 0 1-.102-1.518l.269-.738c.015-.041.052-.22.01-.628L.513.148V0h2v.048l.065.642c.052.51.046 1.039-.12 1.491l-.258.71.374.729c.172.335.29.689.337 1.058z"/></svg>