<svg xmlns="http://www.w3.org/2000/svg" width="32" height="32" fill="none" viewBox="0 0 32 32"><path fill="#050505" d="M12.626 4.729c.356-.347 2.93-.655 3.586-.726.256-.027.802.127 1.072.14 1.274.066 2.465.48 3.64.925.137.052-.064-.036.09.033l.037.026c.37.15.753.294 1.112.439.252.14 1.164.71 1.294.895.29.21.577.524.779.66.286.278.555.475.844.738.206.188.452.592.622.775.097.16.18.344.22.525.036.067.14.294.164.336.23.381.39.51.435.964.14.232.481 1.026.62 1.335.085.126.081.395.087.554.075.145.09.245.123.401.01.083.026.185.027.266l.005.034c.028.196.023.52.067.672.2.699.579 1.156.541 1.908.038.407.046.913-.1 1.303-.022.569-.19.992-.217 1.552l-.017.086a1.36 1.36 0 0 1-.166.586l-.08.272c-.018.16-.026.198-.081.35-.077.191-.155.363-.242.55-.259.576-.452 1.125-.878 1.639-.067.1-.499.71-.56.755-.167.327-1.615 1.987-1.88 2.257-.363.369-2.601 2.2-2.951 2.225-.932.554-1.206.4-2.252.435-.123.004-1.254.2-1.43.233-.267.118-.454.083-.74.098-.416.03-.815.04-1.232.02-.662-.03-1.27-.28-1.922-.378a2.3 2.3 0 0 1-.552-.16c-.37-.078-1.206-.428-1.573-.599-.088-.04-.27-.223-.352-.26-.21-.095-.46-.162-.67-.258a15 15 0 0 1-.963-.502c-.33-.182-.642-.438-.962-.638-.044-.027-.281-.018-.313-.032-.222-.099-.946-.937-1.038-1.098-.249-.22-.879-.977-1.02-1.239-.472-.874-1.06-2.216-1.32-3.17-.047-.102-.31-1.201-.305-1.297l-.01-.301c.004-.063-.031-.307-.037-.397-.053-.773-.198-1.14-.046-1.91.024-.49-.007-1.22.066-1.655-.01-.316.296-1.472.418-1.815.084-.348.156-.463.325-.778.172-.32.323-.775.511-1.079.471-.76 1.536-2.394 2.309-2.846.067-.081.297-.242.394-.325a10.5 10.5 0 0 1 1.869-1.265c.235-.253 2.188-1.044 2.652-1.26m-.312 7.678c-.126.167-.39.528-.523.664-.1.115-.174.215-.301.3-.233.268-1.082.985-1.383 1.178-.085.113-.202.144-.34.203-.29.283-1.695 1.13-2.114 1.286-.365.184-.571.24-.97.347-.007.134-.009.315-.03.443-.006.249-.011.47 0 .72l.025.23c.11.83.317 1.34.458 2.07.263.584.496 1.288.789 1.861.105.207.512.766.665.988.173.213.405.49.625.654.41.302.654.53.98.917.283.23.389.3.722.455l.136.043c.677.303 1.996.497 2.756.8.118.048 1.365.268 1.522.281.713-.059 1.265.16 2.101-.112.285-.1.546-.103.835-.174.332-.08.673-.14.998-.241.46-.2.99-.39 1.434-.599a7.4 7.4 0 0 0 2.775-2.255c.116-.169.168-.26.261-.442.018-.082.208-.442.26-.557.154-.333.31-.663.45-1.003.232-.555.652-2.08.664-2.682.017-.099.047-.217.07-.316.02-.194.01-.646-.018-.833l-.022-.06c-.026-.092-.022-.222-.024-.32-.009-.316-.014-.651-.115-.952a1.4 1.4 0 0 1-.066-.25l-.005-.032c-.024-.148-.034-.384-.046-.54l-.23.035c-.5.267-1.611.103-2.144.086-.569-.013-.709-.087-1.262-.193-.347-.066-.814-.067-1.172-.173-.35-.104-.696-.295-1.049-.374l-.04-.008c-.637-.13-1.23-.416-1.798-.704-.345-.182-.73-.35-1.06-.534-.279-.155-.666-.43-.943-.617a22 22 0 0 1-1.407-1.478l-.05-.098c-.39.367-.906 1.56-1.415 1.986m-.412-6.034.016.19c.265-.101.578-.348.847-.46.112-.048.192-.093.298-.15.048-.048.366-.175.434-.2l-.024-.041c-.32.068-1.08.264-1.369.387-.063.088-.133.191-.202.274m5.562 5.996c.041-.186.07-.29.068-.48l-.057-.024c-.04.046-.03.024-.04.059a1 1 0 0 1-.088.122c-.12.055-.25.03-.388.022.2.185.255.202.505.301m.994-6.962c.303.12.46.348.7.11l.056-.18c-.37-.098-.644-.125-1.027-.254-.153.018-.316.025-.455.083l-.032.07c.258-.005.564-.016.758.17m2.44 2.656.178-.38-.103-.069c-.319.239-.332.309-.379.673-.015.114-.123.281-.186.388.215-.205.257-.264.413-.515zm-5.59 2.46-.009-.083c-.097-.087-.137.048-.216.003-.143-.082-.246-.246-.405-.31l.031.083c.148.194.702.812.877.923-.034-.257-.254-.323-.277-.616m-4.046-1.678c.153-.075.355-.257.51-.263l.02.05-.04.06.022.034c.142-.064.591-.407.624-.551l-.043-.054-.09-.037c-.074.13-.094.142-.216.232-.151.023-.175.037-.312.104l-.031-.012.037-.045a.5.5 0 0 0 .083-.126c-.184-.014-.482.463-.564.608M19.7 7.177l-.032.013c-.133.125-.32.308-.468.402-.038.086-.133.314-.132.403.119-.075.222-.124.298-.237.121-.155.187-.256.364-.35l.154-.083c-.056-.05-.123-.1-.184-.148"/><path fill="#272727" d="M12.626 4.729c.356-.347 2.93-.655 3.586-.726.256-.027.802.127 1.072.14 1.274.066 2.465.48 3.64.925.137.052-.064-.036.09.033l-.055.03c-.213-.062-.52-.092-.652-.138l.145-.03c-.36-.157-.681-.255-1.056-.375-.08.04-.115.113-.172.191a4.4 4.4 0 0 1-.763-.17l-.041-.014c-.073.018-.038.021-.105-.01-.303-.136-1.817-.183-2.227-.18-.162-.115-.15-.238-.345-.284-.081.066-.051.026-.085.13.098.132.219.079.294.197-.053.07-.129.088-.216.122-.274.099-.533.17-.526-.217l-.028-.033c-.313-.034-.934.19-1.395.186-.031-.052-.019-.024-.036-.083-.204-.036-1.014.369-1.125.306"/><path fill="#232222" d="M23.67 6.756c-.192-.025-.275-.106-.213-.295.29.21.577.524.779.66.286.278.555.475.844.738.206.188.452.593.622.776a.7.7 0 0 0-.232.125l-.116.054-.037-.014-.044-.154c-.077-.008-.186.043-.253.079-.166-.064-.31-.448-.438-.556-.092-.072-.087-.075-.149-.177-.064-.072-.087-.079-.114-.165l.074-.073-.03-.041c-.126-.028-.168-.029-.264-.11-.04-.144-.073-.162-.18-.278-.01-.005-.313-.3-.36-.342.061-.148-.015-.113.111-.227"/><path fill="#444" d="M23.67 6.756c-.192-.025-.275-.106-.213-.295.29.21.577.524.779.66-.074.073-.034.062-.114.065-.174-.104-.312-.28-.452-.43"/><path fill="#323232" d="M23.919 7.325c.165-.085.337.048.312.201l-.038-.03-.029-.002-.065.109c-.04-.144-.073-.162-.18-.278M24.434 7.992c.158-.066.107-.073.232-.029l.046.058c-.023.1-.023.095-.13.148-.092-.072-.087-.075-.148-.177"/><path fill="#1c1c1c" d="M15.736 4.57c.087-.034.163-.051.215-.122-.075-.118-.195-.065-.293-.198.034-.103.004-.063.085-.129.195.046.182.17.344.284.411-.003 1.925.044 2.227.18-.29-.02-.372-.05-.684-.013-.026.073.002.134.022.212l-.029.015c-.137-.177-.058-.442-.413-.3-.165.066-.097-.09-.2.059.004.097.032.257.015.328l-.085.027a4 4 0 0 1-.319-.028l.02.166-.055.112c-.057.121-.055.176-.177.25-.164.025-.22-.048-.37-.058-.064-.004-.087.033-.202.02-.125-.087-.101-.101-.144-.252l-.046-.017v-.043l.019.01-.032.023.018.005.016-.041-.06-.012c.158-.099.38-.122.356-.302-.079-.11-.1-.112-.228-.176"/><path fill="#272727" d="M16.279 5.024c.114.008.251.014.363.027l-.056.112c-.057.121-.055.176-.177.25-.164.025-.22-.048-.37-.058-.064-.004-.087.033-.202.02-.011-.093-.046-.166-.08-.253.006-.034.028-.041.065-.076.151-.045.297-.027.457-.022"/><path fill="#eae9ea" d="M16.279 5.024c.114.008.251.014.363.027l-.056.112c-.117.012-.69-.032-.83-.041.007-.034.03-.041.066-.076.151-.045.297-.027.457-.022"/><path fill="#383738" d="M16.279 5.024c-.004-.045-.014-.093-.021-.137-.07-.065-.13-.085-.218-.124.149-.087.477-.08.565.104l.016.018.02.167c-.11-.014-.248-.02-.362-.028"/><path fill="#323232" d="M16.605 4.866c.069-.062.253-.147.345-.14.028.072.032.113-.01.187a4 4 0 0 1-.319-.028z"/><path fill="#2e2d2e" d="M4.566 12.281c.06.248-.147.41-.098.56.09.02.144-.016.23-.053l.121-.14.088.016c.034.065.02.082.01.157.053.063.02.043.106.058l.066-.022c.016-.152-.044-.184-.149-.295l.017-.046c.124-.053.143-.048.282-.053-.026.21-.152.381-.158.518l-.056.101-.01.14c-.034.086-.035.104-.095.177-.129.037-.123.015-.196.096l-.004.045.065.021c.015.08-.022.122-.064.195l-.043-.012c-.022.337-.285.45-.336.957l-.098-.067c.048-.173.022-.134-.07-.338l-.026-.2c-.01-.316.296-1.472.418-1.815"/><path fill="#383738" d="M4.174 14.297c.158-.338.072-.825.28-1.023l.089.01c.043-.085.022-.07.09-.127.027.113-.013.274-.019.412l.106-.03.065.022c.015.08-.022.122-.064.196l-.042-.013c-.023.337-.286.451-.337.957l-.098-.067c.048-.173.022-.134-.07-.337"/><path fill="#444" d="m4.72 13.54.065.021c.015.08-.022.122-.064.195l-.042-.012c-.057-.058-.215-.121-.296-.159l.02-.026c.11-.016.103-.017.211.01zM4.732 13.082l-.107-.07.022-.082-.039.02.052-.047c.134-.018.297.029.42.079l-.055.1c-.124-.05-.173-.082-.293 0"/><path fill="#1c1c1c" d="M4.732 13.083c.12-.083.17-.05.294 0l-.01.138c-.184-.01-.19.013-.284-.139M27.154 19.924c.056-.07.102-.095.176-.146-.077.191-.155.363-.242.55-.259.576-.452 1.125-.878 1.639l-.017-.052q-.053.048-.103.097c-.007-.032.111-.28.137-.36-.072-.117-.044.053-.238-.073.104-.164.024-.297.16-.399l.081.034c.088-.252.41-1.06.452-1.225.016-.044.025-.054.05-.095.111-.02.238.026.39.03z"/><path fill="#272727" d="M27.154 19.924c.056-.07.102-.095.176-.146-.077.191-.155.363-.242.55-.143-.016-.254-.011-.343-.113.046-.093.25-.18.36-.257z"/><path fill="#444" d="M4.082 15.752c.024-.49-.007-1.222.066-1.656l.026.2c.092.204.118.165.07.338l.098.067c.001.144.006.302.002.445-.131.385-.098 2.427.07 2.736-.03.076-.028.09-.08.152-.057-.024-.06-.031-.121-.031l-.049.055c.005-.063-.03-.307-.036-.397-.053-.773-.198-1.14-.046-1.91"/><path fill="#1c1c1c" d="M4.082 15.752c.024-.49-.007-1.222.066-1.656l.025.2c.093.204.119.165.07.338-.003.22-.015 1.21-.11 1.349l-.02-.014.004-.02c-.053-.068-.038-.118-.035-.197M4.48 19.656l.125-.015c.09.04.19.08.276.126l.042.051c-.036.072-.05.058-.146.102.116.146.222.256.271.434l.01.036c.044.16.039.294.127.441a.3.3 0 0 1 .036.118c.136.29.36.236.328.431-.125.073-.212-.007-.33.047-.003.106.126.348.175.459.265.61.621 1.246 1.093 1.74q.056.055.114.105c.067-.02.054-.023.113-.074.103 0 .125-.01.223.017-.095.195-.167.158-.117.39-.249-.219-.879-.976-1.02-1.238-.472-.874-1.06-2.216-1.32-3.17"/><path fill="#383738" d="m4.714 19.96.063-.04c.116.146.222.256.27.434l.011.036c.044.16.039.294.127.442a.3.3 0 0 1 .036.117c-.303-.132-.327-.729-.507-.989"/><path fill="#383738" d="M4.605 19.64c.09.04.19.081.276.127l.041.051c-.036.072-.05.058-.145.102l-.063.04z"/><path fill="#1c1c1c" d="m27.743 16.95.147-.018c-.021.569-.189.992-.216 1.552l-.033-.049c-.136-.042-.324-.027-.474-.025l-.001-.201c-.142-.158-.104-.337.003-.495a1.6 1.6 0 0 1 .03-.468c.395.06.328-.066.548-.235z"/><path fill="#232222" d="M27.169 17.714c.138.009.161.302.224.462-.06.043-.135.029-.227.033-.142-.158-.104-.336.003-.495"/><path fill="#1c1c1c" d="m27.378 13.015.005.034c.028.196.023.52.067.672.2.699.578 1.156.541 1.908l-.143-.048-.03-.05c-.136.025-.26.18-.361.286.034-.317-.13-.31.173-.532l-.179-.046-.082-.03c.02-.19.18-.795.148-.886-.105-.3-.195-.444-.26-.806.049-.011.047-.015.093-.04.032-.11.017-.319.027-.462"/><path fill="#050505" d="M27.45 15.24c.012-.171.025-.365.147-.498.185-.004.224.353.252.493-.062.048-.124.039-.22.05z"/><path fill="#171617" d="M17.047 27.503c.03.002.85.021.81.045.254-.15.272-.22.759-.235l.01.026-.111.21c.302.063.656.034.967.037.453.003.876-.21 1.27-.4l.067.018c-.932.554-1.206.4-2.252.435-.123.004-1.254.2-1.43.233-.13-.111-.11-.219-.09-.37"/><path fill="#444" d="M25.923 9.159c.035.067.138.294.163.336.23.38.39.51.434.964a.6.6 0 0 0-.258.063l-.047-.006c-.024-.385-.143-.274-.22-.65-.143-.026-.22-.016-.313-.1-.026-.128-.108-.218-.19-.32l-.078-.112.014-.05c.09-.077.104-.056.244-.08.07.003.177-.029.25-.045"/><path fill="#272727" d="M25.492 9.446c.05-.025.18-.115.23-.148.13-.008.067-.02.19.055-.05.3-.17.24-.23.413-.026-.128-.108-.218-.19-.32"/><path fill="#323232" d="M25.913 9.353c-.012.263.091.373.082.513-.142-.026-.22-.016-.313-.1.06-.174.18-.113.23-.413"/><path fill="#232222" d="m12.69 27.452.016-.048c.157.062 1.358.341 1.438.317-.1-.245-.874-.34-1.12-.343v-.018c.247-.006 1.126.084 1.278.247a1 1 0 0 1-.088.142c.254.194 1.626.26 1.944.157l-.02-.093c.122-.106.393-.068.54-.171-.093-.037-.12-.021-.227-.014.18-.062.323-.031.596-.125-.02.15-.04.258.09.37-.267.117-.454.082-.74.097-.416.03-.815.04-1.233.02-.661-.03-1.27-.28-1.922-.378a2.3 2.3 0 0 1-.551-.16"/><path fill="#272727" d="M25.99 21.58c.193.125.165-.045.237.073-.026.08-.144.327-.137.359l.103-.097.017.052c-.067.1-.499.71-.56.755-.155.012-.139.065-.314.107l-.023-.038.054-.101-.019-.035-.11.017-.013-.03c.065-.089.12-.132.184-.232.219-.34.238-.579.58-.83"/><path fill="#171617" d="M27.028 19.002c.24.128.266.085.462.154l-.078.272c-.019.16-.027.198-.082.35-.074.051-.12.076-.176.146h-.032c-.152-.004-.28-.05-.39-.03-.025.04-.035.051-.05.096-.022-.085-.006-.045-.077-.117.001-.1.04-.28.136-.327l.026.108.043.015c.075-.085.135-.35.17-.473z"/><path fill="#272727" d="M27.027 19.002c.24.128.267.085.463.154l-.078.272c-.171-.102-.365-.114-.432-.232z"/><path fill="#323232" d="M26.52 10.46c.141.231.482 1.025.62 1.334l-.087-.028c-.105-.085-.05-.07-.166-.068-.058.054-.063.054-.109.117-.083-.304-.545-1.172-.563-1.299l.048.007a.6.6 0 0 1 .258-.064M22.164 5.566c.25.14 1.163.71 1.293.895-.061.189.02.27.213.295-.126.114-.05.079-.111.227-.034-.05-.56-.602-.618-.64-.298-.197-.63-.49-.912-.7z"/><path fill="#1c1c1c" d="M27.167 18.41c.15-.002.338-.017.474.025l.033.05-.017.085a1.36 1.36 0 0 1-.166.586c-.197-.069-.223-.026-.463-.154.047-.109.097-.425.12-.553z"/><path fill="#2e2d2e" d="M27.167 18.41c.15-.002.338-.017.474.025l.033.05-.017.085c-.325-.108-.176.03-.438.023-.082-.067-.052-.024-.072-.144z"/><path fill="#272727" d="M4.175 18.36c.03.028.105.097.128.122.092.1.042.193.165.274.07-.028.051-.014.107-.06-.026.14.236.927.306 1.07-.085-.045-.186-.086-.276-.125l-.126.015c-.046-.102-.309-1.201-.304-1.297"/><path fill="#1c1c1c" d="M7.71 7.578c.068-.081.298-.242.395-.324a10.5 10.5 0 0 1 1.869-1.265l.01.054c-.176.123-.646.347-.738.456l.078.033c-.468.292-1.092.702-1.548 1.043z"/><path fill="#272727" d="m27.848 15.581.143.048c.038.407.046.913-.101 1.303l-.147.019c-.017-.02-.052-.071-.068-.094.01-.04.021-.068.054-.094.359-.283-.055-.836.12-1.182"/><path fill="#323232" d="M4.414 17.882c.013.067.035.156-.001.22l.03.157c.117.035.118.03.216-.056.091.08.072.034.087.13-.069.075-.138.09-.236.125.002.107.038.142.065.238-.056.045-.037.032-.107.06-.123-.081-.073-.174-.166-.274-.023-.025-.098-.094-.127-.123l-.01-.301.047-.055c.062 0 .065.007.121.031.053-.062.05-.076.08-.152"/><path fill="#383738" d="m4.413 18.101.03.158-.079.142-.056.016-.037-.054c-.003-.168-.013-.187.142-.262"/><path fill="#444" d="M26.778 11.815c.046-.063.05-.063.11-.117.116-.003.06-.017.165.068l.087.028c.086.126.082.395.088.554a1.2 1.2 0 0 0-.277-.03c-.006-.148-.117-.344-.173-.503"/><path fill="#272727" d="M26.778 11.815c.046-.063.05-.063.11-.117.116-.003.06-.017.165.068-.018.349-.085.36-.102.552-.006-.148-.117-.344-.173-.503"/><path fill="#2e2d2e" d="M25.47 8.76a.7.7 0 0 1 .232-.125c.097.159.18.343.22.524-.073.017-.18.048-.25.044-.13-.091-.218-.069-.273-.23.04-.054.062-.086.097-.143z"/><path fill="#232222" d="m4.72 13.757.122.056c-.109.208-.015.32-.119.455a.5.5 0 0 0-.101-.063c-.031.147.006.163-.147.21-.105.22.002.517-.131.731.004-.143-.001-.3-.002-.445.05-.506.314-.62.336-.957z"/><path fill="#383738" d="M25.02 8.725c.066-.036.175-.087.253-.079l.043.154.038.014.116-.054.026.07a2 2 0 0 1-.097.142c.055.162.142.14.272.231-.14.025-.154.004-.243.08l-.014.052c-.051-.206-.265-.303-.395-.61"/><path fill="#272727" d="M27.344 16.536c.194.238.056.296.174.465.091.033.133.02.23.01-.221.17-.154.296-.549.235l.014-.025.048-.028c.086-.123.079-.494.083-.657"/><path fill="#232222" d="M21.05 5.127c.371.15.754.294 1.113.439l-.134.077c-.353.028-.626-.32-.96-.46l-.027-.01zM26.95 12.318c.124.001.156.007.278.03.075.145.089.245.123.401-.08.043-.176.098-.258.133-.041-.14-.082-.244-.087-.39.055-.076.018-.05.122-.07l-.026-.04-.015.002-.048-.044c-.043.005-.037-.002-.089-.022"/><path fill="#272727" d="M27.094 12.882c.08-.035.178-.09.257-.133.01.083.026.185.027.265-.011.144.004.353-.028.463-.046.024-.044.029-.093.04-.064-.245-.005-.444-.163-.635M27.369 15.208l.082.031.179.046c-.303.222-.14.215-.173.531-.003.096.054.105.054.245-.047.084-.04.084-.122.135l.062-.168c-.078-.182-.074-.026-.075-.244.032-.167-.062-.375-.007-.576"/><path fill="#323232" d="M4.875 12.146c.127-.058.19-.1.33-.1.203.114.02.297.034.417-.155-.113-.164-.171-.174-.358-.098.031-.087.056-.16.161-.033-.058-.03-.053-.03-.12"/><path fill="#444" d="M27.213 17.22c-.018-.106.033-.746.1-.819l.036.054h-.03l.032.024-.007.057c-.005.163.002.534-.083.657z"/><path fill="#383738" d="M4.92 13.4c.043.124.04.327-.077.413l-.122-.057c.042-.073.08-.114.064-.195l-.065-.021.004-.045c.073-.081.067-.059.196-.096"/><path fill="#323232" d="M27.388 16.196c-.033.014-.048.014-.085.022-.093-.148-.033-.314.073-.434 0 .217-.003.062.074.244z"/><path fill="#050505" d="M12.398 16.234c.626.012 1.187.23 1.428.84.24.609-.009 1.38-.585 1.73-.182.11-.364.162-.571.23a.8.8 0 0 1-.46-.045c-1.147-.393-1.407-1.702-.442-2.452.142-.111.445-.274.63-.303M19.44 16.235c.743-.072 1.408.442 1.493 1.154.084.71-.443 1.355-1.183 1.445-.488.06-.97-.137-1.265-.514a1.26 1.26 0 0 1-.156-1.31 1.36 1.36 0 0 1 1.111-.775"/><path fill="#323232" d="M20.44 7.263c.097.034.046.024.167.005l.156.12.05.076c.034.03.136.12.16.15-.319.239-.332.309-.379.673-.015.114-.123.281-.186.388.214-.205.256-.264.413-.515a.93.93 0 0 0 .088.542c.076.053.035.037.13.047l.077-.063a2 2 0 0 0 .227-.043c.154.04.226.085.388.083.089.138.047.227.004.374l.036.064c.157 0 .16-.135.242-.02l-.077.037.057.052a.8.8 0 0 1-.124.27c.017.177.167.182.172.349a2 2 0 0 1-.143.122c.015.19.103.108.087.256-.074.048-.184.091-.193.186-.029.3.275.451.49.618-.072.028-.1.01-.177-.01.015.183-.067.278-.266.303l-.044-.02-.045-.055-.01.123c-.196.082-.39.244-.484.225-.263-.09-.356.1-.738.03l-.03.025.042.097-.014.024-.062-.043c.022-.167.108-.095.129-.26-.097-.083-.115.03-.24-.056.004-.09.005-.107-.009-.199l-.05-.024c-.098.026-.21.172-.277.252l-.029.035-.054.01-.128.1c-.114.017-.065.03-.154-.018-.057-.19.107-.485.307-.551.03-.095-.017-.214-.043-.321l-.011.04c-.014.045-.02.076-.03.121-.385.383-.369.161-.764.026l-.03.084c-.053-.017-.105-.053-.154-.083-.071.056-.03.038-.13.046l-.075.014-.114-.284-.045-.013.001-.044c.084-.077.126-.083.234-.12l-.1-.042c-.042-.068-.016-.189-.008-.275-.082.069-.185.184-.27.195l-.122-.092-.05-.044c.066-.34-.122-.174-.152-.38.051-.135.073-.145.18-.251.097-.028.047-.028.152.02.186-.089.052-.152.19-.242.035-.023.2.005.292-.064.012-.098.005-.113.064-.194.085.012.088.021.161-.014.029-.153.084-.231.248-.247l.006.03c-.067.056-.146.103-.165.18l.079.061v.063l-.069.002c-.017.082 0 .071.052.165.02.003.038.016.057.024l-.052.059.006.033.069-.02c.094-.094.016-.255.027-.418.076-.05.216.058.393.082l.022-.034c-.027-.078-.087-.152-.136-.222-.203-.02-.328-.056-.285-.278.024-.12-.03-.323.044-.398l.116.01c.24.162.058.264.167.481l.036-.003c.039-.11.055-.152.11-.254l.059-.016.08.065c.09-.03.178-.158.188-.246-.038-.04-.036-.049-.056-.1l-.06-.164c.108-.13.113-.129.144-.291-.01-.055-.02-.075-.005-.129a.3.3 0 0 1 .174-.2c.056-.025.016.012.066-.077"/><path fill="#171617" d="M21.116 8.686c.088-.013.139-.02.227-.043.155.04.227.085.388.083.09.138.047.227.004.374l.036.064c.158 0 .16-.135.242-.02l-.077.037.058.052a.8.8 0 0 1-.124.27c.016.177.166.182.171.349a2 2 0 0 1-.142.122c.014.19.102.108.087.256-.074.048-.185.091-.194.186-.028.3.276.451.49.618-.071.028-.1.01-.177-.01.016.182-.066.278-.265.303l-.045-.02-.045-.055-.01.123c-.195.082-.39.244-.483.225-.264-.09-.357.1-.739.03l-.03.025.042.097-.013.024-.063-.043c.023-.167.109-.095.129-.26-.097-.083-.115.03-.24-.056.004-.09.005-.107-.008-.199l-.05-.024c-.099.026-.21.172-.277.252l-.03.035-.054.01.021-.116c.228-.236.337-.17.482-.283l.064-.033c.137-.114.225-.155.358-.295l.062-.183a.36.36 0 0 0 .029-.346l-.057-.06c-.022-.065-.02-.032.009-.1.1-.017.16-.013.26-.011.09-.06.055-.02.092-.138-.108.012-.125-.002-.196-.052-.068-.22.07-.251.138-.444-.074-.047-.058-.018-.09-.081l.076-.046c-.095-.02-.106-.008-.207.007.055-.171.045-.334.046-.513l.019-.033.01-.015z"/><path fill="#383738" d="m21.172 9.303.1-.074c.147.043.282.058.4.138l.008.054c-.08.098-.031.057-.165.11a.8.8 0 0 1-.309.151l-.034.04c.04.062.028.037.11.08l-.038.124c-.108.012-.125-.002-.197-.052-.068-.22.07-.251.138-.444-.073-.047-.057-.018-.09-.081z"/><path fill="#1c1c1c" d="M21.51 11.309c-.077-.108-.102-.131-.134-.254l.026-.034c.118.027.109.071.212.11.052.02.047-.066.152-.123.11.028.148.034.262.045l.031.037c-.028.098-.16.153-.264.218l-.045-.056-.01.123c-.07-.112-.022-.082-.13-.117z"/><path fill="#eae9ea" d="m21.51 11.309.1-.05c.108.035.06.004.13.116-.196.082-.39.244-.484.225.016-.108.166-.216.254-.291"/><path fill="#323232" d="M21.283 9.803c-.083-.043-.07-.018-.11-.08l.033-.04a.8.8 0 0 0 .309-.152.9.9 0 0 0-.064.322l-.036.043c-.08-.034-.074-.03-.132-.093"/><path fill="#383738" d="M20.44 7.263c.097.034.046.024.167.005l.156.12.05.076c.034.03.137.12.16.15-.319.239-.332.309-.379.673-.015.114-.123.281-.186.388.214-.205.257-.264.413-.515a.93.93 0 0 0 .088.542c.076.053.035.037.13.047l-.01.015c-.156 0-.437-.013-.427.228l.148.047.025.07c-.156-.01-.179.091-.258.215-.083.04-.08.036-.176.038-.006-.018.001-.005-.045-.042.024-.138.064-.284.03-.415-.085-.08-.039-.067-.133-.077.004.081.019.137-.027.202-.15-.025-.18-.102-.19-.233-.068-.075-.091-.091-.125-.188.187-.11.333-.105.4-.317-.038-.12-.017-.078-.13-.168l-.06-.164c.108-.13.114-.129.144-.291-.01-.055-.02-.075-.005-.129a.3.3 0 0 1 .174-.2c.056-.025.016.012.066-.077"/><path fill="#232222" d="M20.44 7.263c.098.034.046.024.167.005-.104.09-.131.236-.217.381-.087.027-.091.021-.185.02-.01-.055-.02-.075-.005-.129a.3.3 0 0 1 .174-.2c.056-.025.016.012.066-.077"/><path fill="#272727" d="m20.607 7.268.156.12.05.076c-.202.113-.29.084-.423.185.085-.145.113-.291.217-.38"/><path fill="#1c1c1c" d="M18.418 9.62c.186-.09.052-.153.19-.244.035-.022.2.006.292-.064.012-.097.005-.112.064-.193.085.012.088.021.161-.014.029-.153.084-.231.248-.247l.006.03c-.067.056-.146.103-.165.18l.079.061v.062l-.069.003c-.017.082 0 .071.052.165-.06.096-.062.153-.085.265l.006.163c.09.012.107-.008.195.02l-.002.258c-.002.085-.004.09-.054.16-.093.047-.085.046-.19.035l-.022-.045c.036-.063.07-.109.082-.18-.079-.049-.036-.03-.147-.031-.152.088-.121.263-.27.483l-.101-.041c-.042-.068-.016-.189-.008-.275-.082.069-.185.184-.27.195l-.122-.092-.05-.044c.066-.34-.122-.174-.152-.38.051-.135.073-.145.18-.251.097-.028.047-.028.152.02"/><path fill="#232222" d="M18.237 10.23c.067-.34-.121-.174-.15-.38.05-.135.072-.145.18-.251.096-.028.046-.028.151.02l.046.013c-.036.116-.024.083.013.219.143-.001.148-.024.248.036l.03.068-.021.042.073.063c-.03.073-.04.06-.127.111-.082.069-.185.184-.27.195l-.122-.092z"/><path fill="#323232" d="M18.477 9.85c.143 0 .148-.023.248.037l.03.068-.021.042.073.063c-.03.073-.04.06-.127.111-.082.069-.185.184-.27.195l-.122-.092-.05-.044.05-.005-.002.002.106-.042-.078-.025-.006-.048.058-.052.093.025c.044-.064.022-.138.018-.234"/><path fill="#2e2d2e" d="m18.464 9.632.083-.032c.046-.11.11-.193.236-.224l.05.03c.02.098-.001.478-.079.55l-.029-.069c-.1-.06-.105-.037-.248-.036-.037-.136-.05-.103-.014-.22"/><path fill="#232222" d="M20.122 8.124c.113.09.092.048.129.168-.067.212-.213.206-.4.317.034.096.058.113.126.188.01.131.038.208.189.233.046-.065.031-.12.027-.202.094.01.048-.003.133.077.034.13-.006.277-.03.415a.4.4 0 0 1-.151.006l-.155.162h-.045c-.056-.19.033-.208-.051-.32a1 1 0 0 0-.156.059c-.126-.059-.154-.137-.249-.143-.077.081-.064.037-.065.13.172.243.488.143.393.426-.022.066-.002.073-.06.13l-.063.008c-.017-.03-.03-.044-.037-.075-.16-.017-.17-.045-.264.105-.09-.029-.107-.01-.195-.021l-.006-.163c.022-.112.024-.17.084-.265.02.003.039.016.058.024l-.053.059.006.033.069-.02c.095-.094.017-.256.027-.418.076-.05.216.058.394.082l.021-.034c-.027-.079-.087-.152-.136-.222-.203-.02-.327-.056-.285-.278.024-.12-.029-.323.044-.398l.117.01c.239.161.058.264.166.481l.037-.004a1.4 1.4 0 0 1 .108-.253l.06-.017.08.066c.09-.03.178-.159.188-.246-.038-.04-.036-.049-.055-.1"/><path fill="#383738" d="M19.192 9.624c.196.081.226.018.404-.088l.039.015.022.152c-.16-.017-.17-.044-.264.105-.09-.029-.107-.01-.195-.021z"/><path fill="#444" d="m20.775 9.11-.025-.071-.148-.047c-.01-.24.271-.229.427-.228l-.019.034c0 .178.01.34-.045.512-.031.16.002.178-.151.251l-.15.08c-.135.077-.442.199-.52.003.022-.111.117-.193.197-.282.095-.002.093.003.176-.037.079-.125.102-.226.258-.215"/><path fill="#1c1c1c" d="m20.775 9.11-.025-.071-.148-.047c-.01-.24.272-.229.427-.228l-.019.034-.067.046c0 .15-.05.43-.146.552l-.033-.016c-.037-.114-.018-.147.011-.27"/><path fill="#444" d="M20.43 10.065c.05-.109.064-.136.091-.251l.048-.019c.124.054.136.054.218.153l.013.063c-.052.07-.033.058-.101.106.054.052.106.048.184.058l.056.06a.36.36 0 0 1-.028.346l-.062.183c-.133.14-.221.181-.358.295l-.019-.034c-.062-.085-.084-.105-.11-.207.12-.219.234-.202.14-.448l-.012-.029.057-.06.037-.094c-.045-.092-.033-.064-.154-.122"/><path fill="#2e2d2e" d="M20.94 10.235a.36.36 0 0 1-.03.346l-.095-.053-.023-.106c.055-.154.013-.106.147-.187"/><path fill="#a9abab" d="M20.472 11.025c.075-.151.211-.23.377-.262-.133.14-.221.182-.358.296z"/><path fill="#232222" d="M19.12 10.671c.115-.045.325-.127.437-.082l.02.114.054.028c.075-.028.099-.058.158-.111l.062.007.056.074-.012.04c-.013.045-.02.076-.03.121-.385.383-.369.161-.763.026l-.03.084c-.054-.017-.105-.053-.155-.083.05-.067.142-.155.204-.218"/><path fill="#272727" d="m20.193 10.726.06-.02c.1.094.065.213.174.386-.145.114-.254.046-.482.283l-.021.116-.128.1c-.114.017-.065.03-.154-.018-.057-.19.107-.485.307-.551.03-.095-.017-.214-.043-.322a.45.45 0 0 1 .135.306c.115-.074.126-.158.152-.28"/><path fill="#444" d="M18.598 10.665c.015-.034.029-.048.052-.08.173-.055.28-.028.453.025l.018.061c-.062.063-.155.151-.204.218-.071.056-.03.039-.13.046l-.075.014z"/><path fill="#eae9ea" d="m19.103 10.61.018.061c-.062.063-.154.151-.204.218-.07.056-.03.039-.13.046l.011-.032c.06-.13.17-.234.305-.293"/><path fill="#232222" d="M20.547 10.282c-.121-.012-.216-.006-.338-.001.064-.122.03-.191.088-.306.095.01.049-.004.133.09.12.058.109.03.154.123zM20.814 9.561c.09.128.137.146.14.276l-.031.022c-.131-.047-.184-.098-.258-.218z"/><path fill="#444" d="M20.042 11.006a.9.9 0 0 0 .037-.31l.033-.017-.035.053c-.003-.08-.018-.09.01-.145.046.044.054.052.067.112l.04.027c-.026.122-.038.206-.152.28"/><path fill="#1c1c1c" d="M15.932 6.912c.092.067.41.317.501.325l.074-.027c.181.03.275.053.46.027l.083-.019c.016.036.176.18.262.303.069.022.044.023.112.018-.004.098.123.223.173.341.053.125.143.284.218.396.145-.097.256-.345.45-.22.05.085.07.104.073.204-.101.167-.284.16-.47.156l-.031.036c.036.054.015.034.06.063-.039.04-.18.11-.246.155.045.116.108.19.18.292.048.085.121.19.22.216-.019-.051-.109-.192-.142-.247l.056.01.068-.041q.08.034.166.056c.075-.043.078-.064.124-.135.154 0 .155.145.24.26-.1.13-.057.118-.207.233l-.068.015-.066-.05c.033.122.077.185.002.291-.238.338-.497.255-.48.713-.078.05-.035.031-.145.04.11-.075.084-.027.109-.13-.131-.179-.116-.017-.206-.166.038-.123.149-.125.272-.147-.186-.06-.415-.092-.554-.206-.025.06-.029.051-.08.103-.032-.129-.037-.117-.15-.175l-.172.04-.089.088c.039.06.014.036.073.072l.077.035c.007.147-.225.221-.35.267-.051-.056-.047-.054-.116-.087-.073.021-.098.032-.173.036-.043-.106-.056-.519-.004-.631.032-.07.012.033.022-.084-.541.092-.266-.034-.56-.264-.176.016-.302-.173-.502-.321-.022-.108-.106-.232-.144-.388.026-.078.004-.044.075-.101.06.006.109.014.168.023-.014-.228.021-.334-.18-.465-.01-.12-.057-.16-.162-.209l-.08.026c.049-.05.083-.053.155-.08l.033-.085.09-.081c.04-.023.145-.122.185-.158l.006-.051.037-.035c.222-.113.299-.067.553-.237"/><path fill="#171617" d="M15.932 6.912c.092.067.41.317.501.325l.074-.027c.181.03.275.053.46.027l-.024.2c.096.02.115.008.173.063-.029.073-.062.12-.142.152l-.384.02c-.065.13-.127.257-.203.38-.076-.124.024.049-.227-.022-.158.116-.04.09-.15.228l-.042-.015-.148.075c-.223.153-.083.12-.158.319-.058-.033-.039-.02-.083-.07-.059.044-.046.072-.066.163l-.035-.172c-.082-.062-.034-.044-.156-.037l.024-.026c-.102-.071-.087-.032-.112-.117l.079-.042-.018-.05c-.014-.227.021-.333-.18-.464-.01-.12-.057-.16-.162-.209l-.08.026c.049-.05.083-.053.155-.08l.033-.085.09-.081c.04-.023.145-.122.185-.158l.006-.051.037-.035c.222-.113.299-.067.553-.237"/><path fill="#272727" d="M15.64 7.379c.1.035.096.03.161.109.002.108.016.056-.059.154-.062.014-.1.022-.163.03l-.076.013c.019.206-.1.165-.098.35l.043.03c.136-.086.035-.153.143-.162l.085.067.138.148.154.125-.148.075c-.223.153-.083.12-.158.319-.058-.033-.039-.02-.083-.07-.059.044-.046.072-.066.163l-.035-.172c-.082-.062-.034-.044-.156-.037l.024-.026c-.102-.071-.087-.032-.112-.117l.079-.042-.018-.05c-.014-.227.021-.333-.18-.464-.01-.12-.057-.16-.162-.209l-.08.026c.049-.05.083-.053.155-.08l.033-.085.09-.081c.1.037.097.032.175.1.122-.1.147-.092.314-.114"/><path fill="#171617" d="M15.151 7.393c.1.037.097.032.175.1.123.057.13.034.176.126-.067.137-.242.164-.387.203-.01-.12-.057-.16-.162-.21l-.08.027c.049-.05.083-.053.155-.08l.033-.086z"/><path fill="#323232" d="M15.82 8.318c-.132-.075-.193-.205-.23-.342l.086-.006.138.148.154.125z"/><path fill="#1c1c1c" d="m15.342 7.184.038-.035c.119.052.224.016.269.096l-.014.084c.17.074.2-.065.304.029.003.138-.03.201.04.278l.182.018.03.04-.033.071c-.13.034-.357-.092-.58-.094.065-.007.102-.015.165-.03.074-.097.06-.045.058-.153-.065-.08-.06-.074-.16-.11-.167.023-.193.016-.315.115-.078-.068-.075-.063-.174-.1.039-.023.144-.122.184-.158z"/><path fill="#272727" d="M15.152 7.393c.039-.023.144-.122.184-.158.202.031.199.008.305.144-.167.022-.193.015-.315.114-.078-.068-.075-.063-.174-.1"/><path fill="#232222" d="M16.163 7.893c.172-.146.202-.155.427-.22-.065.128-.126.256-.203.38-.076-.125.025.048-.227-.024z"/><path fill="#272727" d="M15.814 8.118c.173-.02.227-.106.348-.225l-.003.136c-.157.116-.038.09-.15.229l-.042-.015zM17.832 8.962c.047.085.12.19.219.216-.019-.051-.109-.192-.142-.247l.056.01.068-.041q.08.034.166.056c.075-.044.078-.064.124-.135.154 0 .155.145.24.26-.1.13-.057.118-.207.233l-.068.015-.066-.05c.033.122.077.185.002.291-.238.338-.496.255-.48.713-.078.05-.035.031-.144.04.11-.075.083-.028.108-.13-.13-.179-.116-.017-.206-.166.038-.123.149-.125.272-.147-.186-.06-.415-.092-.554-.206.076-.17.018.037.17-.084a1.1 1.1 0 0 1 .095-.338c.04-.088.071-.107.16-.143.09.01.067.016.15-.003l-.059-.046c-.134.01-.199.038-.295-.06.286.001.135.06.39-.038"/><path fill="#323232" d="M18.012 8.927c.07.032.117.085.184.131.164-.017.102-.055.272-.013l.032.052-.04.078c-.114.065-.1.043-.254.046-.059.082-.027.139-.022.268-.068-.04-.04-.027-.088-.108l-.017-.025a.35.35 0 0 0-.387.03c-.057-.042-.033-.015-.053-.097.134-.237.304.024.479-.07-.004-.157-.073-.098-.106-.292"/><path fill="#272727" d="M16.528 8.937c.085-.089.132-.217.215-.269.02.037.04.091.042.133 0 .088.067.138.095.204.387-.036.177.14.426.36-.039.03-.302.222-.317.237l-.171.04c-.055.015-.167.043-.214.061-.02-.262.095-.197-.05-.463-.08-.119-.08-.129-.118-.268l-.07-.023c.07-.027.084-.018.162-.012"/><path fill="#383738" d="M16.529 8.937c.084-.089.131-.217.214-.269.02.037.041.091.042.133.001.088.068.138.095.204.006.07.079.295.096.412-.07.09-.168.12-.282.131.006-.104.051-.088.085-.161.031-.068-.105-.307-.132-.397z"/><path fill="#1c1c1c" d="M16.437 8.972c.158.028.121 0 .22.091.017.091.022.046-.033.137l-.07.04c-.08-.119-.08-.129-.117-.268"/><path fill="#323232" d="M17.815 8.276c.145-.097.256-.345.45-.22.05.085.07.104.073.204-.101.167-.285.16-.47.156l-.031.036c.036.054.015.034.06.063-.039.04-.18.11-.246.155-.185.174-.543.182-.594-.082l.033-.031.108.087c.302-.252.062-.197.148-.369.191.055.282.067.47 0"/><path fill="#2e2d2e" d="M16.974 7.652a.41.41 0 0 1 .012.382l-.052.025a1 1 0 0 1-.086-.134c-.22 0-.178.243-.46.128.075-.124.137-.252.202-.38zM16.365 8.949l.071.023c.037.139.038.15.117.268.146.266.032.201.051.463-.122.015-.17.026-.255-.059l.11-.038c.06-.068.045-.028.039-.125-.088-.084-.091-.08-.14-.185.038-.188.006-.173.007-.347"/><path fill="#232222" d="m16.802 9.802.078.035c.006.147-.226.221-.35.267.012-.088.008-.156.02-.25.1-.064.112-.043.252-.052"/><path fill="#444" d="M15.322 8.52c.122-.006.074-.024.156.038l.035.172-.01.083-.049.022c-.143-.06-.206-.18-.132-.314M16.154 8.843a.44.44 0 0 1 .25-.119l.008.035-.036.043c-.145.18-.16.217-.185.44l-.03.012c-.066-.121-.089-.221-.205-.3.138-.079.12-.001.198-.111"/><path fill="#323232" d="M15.956 8.954c.03-.125-.031-.193-.048-.329l.03-.018c.103.066.143.138.216.236-.077.11-.06.032-.198.111"/><path fill="#272727" d="M17.968 7.455c-.053-.113-.108-.215.011-.296-.058.035-.04.011-.061.068l.074-.073c.121-.005.187.02.306.05.38-.175.174-.785.773-.171.05-.039.096-.077.138-.123.803-.237.486.1.817.231.153-.053.099-.056.243-.028l.171.15c-.05.09-.01.052-.066.077a.3.3 0 0 0-.174.2c-.014.054-.005.074.005.129-.03.162-.035.162-.144.291l-.088-.062-.1.078c-.107.085-.197.15-.34.14-.147-.074-.193-.139-.326-.143-.152.136-.18.205-.376.21l-.041.032c-.024.205-.054.575-.318.601l-.313-.2.074-.052a.24.24 0 0 0-.335-.049c-.046-.029-.025-.01-.061-.063l.03-.036c.187.004.37.01.47-.156-.002-.1-.022-.12-.072-.205-.194-.124-.305.124-.45.22a2.6 2.6 0 0 1-.218-.395c-.05-.118-.177-.243-.173-.341.034-.107.04-.183.133-.245.263-.032.35.17.3.39l-.023.024c.097-.032.199-.057.298-.084.096-.083.092-.079.148-.191l-.017-.021-.142.125-.035.038c-.093-.037-.05-.015-.118-.12m1.232.137c-.038.087-.133.314-.132.403.119-.075.222-.124.298-.237.121-.154.187-.256.364-.35l.155-.083c-.058-.05-.125-.1-.185-.148l-.032.013c-.133.125-.32.308-.468.402"/><path fill="#171617" d="M19.07 7.033c.05-.04.097-.077.139-.123.803-.237.486.1.817.23.153-.052.098-.055.243-.027l.17.15c-.05.089-.009.052-.065.076a.3.3 0 0 0-.174.2c-.014.055-.005.075.005.13-.03.162-.036.162-.144.291l-.089-.062-.099.078c-.107.085-.197.15-.34.14-.147-.074-.193-.139-.327-.143-.15.136-.18.205-.375.21.077-.03.124-.07.19-.118.038-.017.023-.014.047-.07.118-.075.222-.124.298-.237.121-.155.187-.256.364-.35l.154-.083c-.057-.05-.124-.1-.184-.148l-.032.013c-.102-.052-.131-.117-.229-.182-.105.024-.086.033-.176.121-.042.01-.022.008-.072.003-.06-.006-.082-.055-.12-.1"/><path fill="#383738" d="M19.73 7.408c.093.085.088.053.098.148l-.109.09.132.044.003.038c-.119.041-.34.024-.488.03.121-.154.187-.256.364-.35"/><path fill="#444" d="m19.7 7.177.05-.048c.139.028.389.046.483.077-.067.08-.243.117-.349.12-.057-.051-.124-.101-.184-.149M19.263 7.13c.09-.089.071-.098.176-.121.098.064.127.13.23.181-.134.125-.32.308-.47.403l-.032-.15.017-.048c-.03-.077-.07-.14-.045-.213l.1-.006z"/><path fill="#444" d="M19.022 8.065a4 4 0 0 1-.248-.032l-.012-.036c.072-.103.354-.525.406-.554l.032.15c-.038.086-.133.313-.132.402-.024.056-.009.053-.046.07"/><path fill="#1c1c1c" d="M17.424 7.539c.034-.108.04-.183.133-.245.263-.032.35.17.3.389l-.008-.055c-.017-.112-.022-.146-.107-.206-.107-.007-.218.066-.318.117"/><path fill="#383738" d="M17.968 7.455c.041-.102.056-.177.146-.239l.053.001c.096.166.013.176-.046.32l-.035.038c-.093-.037-.05-.015-.118-.12"/><path fill="#323232" d="M19.02 7.202c.035.123.044.088.01.193-.102.048-.322.03-.474.066l-.056-.004.024-.044c.203-.12.26-.178.495-.211"/><path fill="#232222" d="M12.355 8.12c.072-.082.076-.084.167-.149.133.002.132.064.163.179.058.025.03.025.083.01l.06.175c-.125-.023-.279-.097-.373-.101a2.5 2.5 0 0 0-.267.292c.031.078.058.086.128.139.04.205-.342.411.052.551.024-.078.018-.074-.008-.153-.078-.065-.054-.027-.085-.113.098-.063.107-.06.228-.075.238.096.073.379.088.523.014.154.105.176.092.384.075.127.22.321.175.435-.077.195-.302.578-.436.723-.13.005-.095.021-.192-.035-.045-.116.017-.158.013-.28-.086-.082-.147-.084-.27-.115-.145-.288.29-.325.505-.27.046.05.047.05.086.107l.02-.013c0-.15.07-.17-.015-.324l-.084-.017c-.15-.152-.02-.259-.068-.45-.243-.119-.434.047-.301.321l.1.018c-.182.109-.252.082-.45.228-.279-.093-.148-.443-.62-.209-.251.124-.387.182-.5.428-.225-.065-.206-.111-.42-.074a6 6 0 0 1-.264.108l-.044-.109c-.089-.034-.14-.114-.203-.19l.11-.1c.06-.035.094-.029.17-.036l.027-.035-.029-.126c.128.145.078.215.225.309.101.003.143.01.239-.023.018-.124-.087-.051-.14-.205.177-.042.142-.009.256-.116-.094-.098-.105-.103-.149-.225.033-.15.178-.105.316-.22.081-.172.098-.196.267-.294.05-.014.028-.008.073-.051.186-.01-.01-.036.182-.097.153-.075.355-.257.51-.262l.02.05-.04.06.022.033c.142-.064.591-.407.625-.55z"/><path fill="#232222" d="M12.584 10.334c.068-.12.118-.24.056-.373l-.134-.041a.6.6 0 0 1-.022-.376c.076-.007.038-.012.11.034.02.072.025.096.063.161l.026.043c.075.127.22.321.175.434-.077.196-.302.579-.436.724-.13.005-.095.021-.191-.035-.046-.116.016-.158.012-.28-.086-.082-.147-.084-.27-.116-.145-.287.29-.324.505-.269.046.05.047.05.086.107z"/><path fill="#171617" d="M12.275 8.95c.098-.063.107-.06.228-.075.238.096.073.379.087.523.015.154.106.176.093.384l-.026-.043c-.038-.065-.043-.09-.063-.16-.072-.047-.035-.042-.11-.035a.6.6 0 0 0 .021.376l.134.04c.063.134.012.253-.056.374 0-.15.07-.17-.015-.324l-.083-.017c-.15-.152-.02-.259-.069-.45-.242-.119-.433.047-.3.321-.09-.002-.1.003-.183-.023-.065-.115-.115-.175-.059-.299.232-.174.347-.032.638-.085.084-.093-.058-.029-.036-.201.116-.069.14-.076.137-.2-.105-.114-.19-.124-.338-.106"/><path fill="#1c1c1c" d="M10.573 9.732c-.094-.098-.105-.103-.149-.225.033-.15.178-.105.316-.22l.124.085a.56.56 0 0 1-.169.294c-.106.025-.073-.004-.122.066"/><path fill="#383738" d="m11.007 8.992.062.051c-.01.136-.051.197-.134.305l-.07.024-.125-.086c.081-.171.098-.195.267-.294"/><path fill="#171617" d="M9.824 9.964c.125.064.082.02.15.123-.009.093-.007.087-.056.167-.089-.034-.14-.114-.203-.19z"/><path fill="#323232" d="M12.146 8.597c.064.04.068.036.1.1-.08.167-.042.185-.09.311-.055-.15-.084-.149-.176-.276.042-.092.053-.073.166-.135"/><path fill="#1c1c1c" d="M9.868 24.124c.162.104.178.164.326.144.284.23.39.3.723.455l.136.043c.677.303 1.996.497 2.756.8.117.048 1.365.268 1.522.281l-.057.09.097.001c.056.07.082.125.1.212-.303-.052-.608-.208-.905-.213l-.013.027c.1.083.266.182.303.266-.099.1-.436-.003-.546-.076l-.088-.006-.095.11c-.08-.006-.078-.013-.146-.06-.322-.073-.734-.026-.98-.272-.235-.234-.515-.231-.758-.368-.225-.164-.378-.114-.621-.198-.558-.192-1.689-.576-1.95-1.105l.017-.032.203.049.04-.043.009.003z"/><path fill="#323232" d="M14.613 26.082c-.135-.075-.348-.165-.446-.253.195-.11.94.166 1.107.108l.097.001c.056.07.082.125.1.212-.303-.052-.608-.208-.905-.213l-.012.027c.098.083.265.182.302.266-.099.1-.436-.003-.546-.076l-.088-.006-.094.11c-.081-.006-.079-.013-.146-.06-.08-.195-.405-.168-.475-.317.26.038.423.046.655.166.108.056.323.039.451.035"/><path fill="#232222" d="m10.917 24.723.136.043c.043.069.101.15.071.226l-.072-.011c-.106-.082-.172-.124-.135-.258"/><path fill="#444" d="m13.134 25.45.06.041-.005.074c.137.178.558.006.745.203l-.028.055c-.241-.084-.736-.062-.841-.243z"/><path fill="#171617" d="m19.265 25.32.052.028c-.23.14-.729.116-.798.226l.138.036c.128.039.28.047.398-.026a1 1 0 0 0 .11-.08l.126.032-.003.027c-.197.053-.728.187-.74.43-.214.162-.31.037-.465.156.045.02.083.035.13.053-.026.044-.01.032-.039.047-.25.316-1.37.49-1.738.308l.002-.052a1 1 0 0 0-.174-.065 6.6 6.6 0 0 0-1.23-.183c-.02 0-.237.108-.27.125-.231-.017-.38-.014-.454-.228.11.073.447.177.546.076-.037-.084-.204-.183-.302-.265l.012-.028c.297.005.602.161.906.213a.45.45 0 0 0-.1-.212l-.098-.001.057-.09c.713-.059 1.265.16 2.101-.112.285-.1.546-.103.835-.174.331-.08.673-.14.998-.241"/><path fill="#2e2d2e" d="M17.433 25.735c.14-.008.232-.02.372.001-.271.186-.422.068-.683.174l-.032.09a2.7 2.7 0 0 0-.603.113c-.067.015-.218.033-.26.045-.255.07-.299-.067-.547-.003-.073.008-.135 0-.208-.005a.45.45 0 0 0-.1-.212l-.097-.001.056-.09c.714-.059 1.265.16 2.102-.112"/><path fill="#323232" d="m17.122 25.91-.032.09a2.7 2.7 0 0 0-.604.113l-.037-.056.036-.055c.124-.054.476-.073.637-.092"/><path fill="#383738" d="m15.68 26.155.02-.147.055-.038h-.002l.02.024-.033.07c.097.075.297-.06.487.094-.255.07-.299-.067-.547-.003"/><path fill="#eae9ea" d="M17.625 26.287c.187.032.386-.104.55-.038-.25.316-1.371.49-1.739.308.115-.052.99-.222 1.19-.27"/><path fill="#444" d="m17.805 25.736.024.09c-.12.142-.547.213-.739.174l.032-.09c.261-.106.411.012.683-.174"/><path fill="#7c7c7d" d="m17.625 26.287.011-.007c.41-.135.382-.311.912-.287-.214.162-.31.037-.465.156.045.02.083.035.13.053-.026.044-.01.032-.039.047-.164-.066-.362.07-.55.038"/><path fill="#444" d="M18.657 25.61c-.161.166-.372.165-.589.153.12-.123.398-.127.59-.153"/><path fill="#232222" d="m23.953 11.103.051-.016c.055-.114.161-.323.255-.4l.043.012c-.016.155-.014.157.058.294l.009.03c.153.084.138.073.315.01-.018.16-.109.288-.073.411.145.15.128.098.16.277l.048.097c.12.11.115.146.206.257.109.197.102.218.107.437l.032.036c.057.115.054.06.032.168-.065.067-.12.12-.19.183l-.047.055h-.036a1 1 0 0 1 0-.172l-.048-.018c-.298-.056-.315-.352-.649.034-.207.048-.292-.24-.5-.285-.15.132-.125.098-.326.052.097-.05.131-.182.197-.268q.029-.035.055-.074l-.046-.063c-.148-.01-.089-.026-.21.063-.09.013-.085.01-.168-.032-.082-.189-.059-.149-.26-.196l-.016-.038c.109-.15.182-.118.255-.27.081-.03.037-.023.145.02.022.006.05.007.073.009.267-.324.373-.143.467-.244l-.162-.06-.025-.02c-.038-.125-.104-.134-.06-.28.084-.012.04-.014.134.04l.031.003z"/><path fill="#272727" d="m23.954 11.103.05-.016c.055-.114.161-.323.256-.4l.042.012c-.016.155-.014.157.059.294l.008.03c.153.084.138.073.315.01-.018.16-.109.288-.072.411.144.15.127.098.16.277l.047.097c-.032.062-.041.088-.085.143-.074.06-.212.165-.259.238l-.04.008-.08-.062-.217.037c.101-.186.317-.2.303-.465-.131-.191-.357-.206-.55-.305-.065-.034-.067-.016-.16 0l-.026-.02c-.038-.125-.104-.134-.06-.28.084-.012.04-.014.135.04l.03.003z"/><path fill="#383738" d="M24.369 11.023c-.006.091.024.12.073.193l-.015.051c-.126.075-.175.108-.31.159-.016-.117-.032-.4.007-.507.107-.013.118.018.236.074z"/><path fill="#eae9ea" d="M24.356 12.145c.272-.137.261-.362.416-.424l.047.097c-.032.062-.041.088-.085.143-.074.06-.212.165-.259.238l-.04.008z"/><path fill="#323232" d="M23.953 11.103c.06.054.059.05.095.12l-.017.066c-.098.055-.045.038-.17.038-.092-.062-.066-.022-.086-.121l.035-.05z"/><path fill="#171617" d="M24.819 11.818c.12.11.115.146.206.257.108.197.102.218.106.437l.033.036c.057.115.054.06.032.168a4 4 0 0 1-.19.183l-.047.055h-.036a1 1 0 0 1 0-.172l-.048-.018c.01-.103.03-.113-.013-.186l-.065.02c-.102-.115-.152-.094-.29-.152-.055-.076-.037-.15-.032-.247.047-.073.184-.177.258-.238.044-.055.053-.081.085-.143"/><path fill="#2e2d2e" d="M24.819 11.818c.12.11.115.146.206.257l-.041.05c-.094-.012-.176-.1-.25-.164.044-.055.053-.081.085-.143"/><path fill="#232222" d="M25.164 12.548c.057.115.054.06.033.168-.066.067-.121.12-.19.183l-.03-.065c.03-.107.116-.196.187-.286"/><path fill="#323232" d="m24.355 12.145.08.062.04-.008c-.005.096-.023.171.031.247.14.058.19.037.291.151-.142.007-.279-.041-.415-.08-.094.058-.125.087-.237.106-.138-.067-.153-.236-.073-.35l.066-.091z"/><path fill="#eae9ea" d="m24.356 12.145.079.062a3 3 0 0 0-.21.212l-.06.013c-.068-.068-.061-.068-.092-.16l.065-.09z"/><path fill="#171617" d="M23.606 12.16c-.148-.01-.089-.026-.21.063-.09.013-.085.01-.168-.032-.082-.189-.059-.149-.26-.196l-.016-.038c.109-.15.182-.118.255-.27.081-.03.037-.023.145.02-.174.04-.18.075-.192.244.075.155.222.169.389.173z"/><path fill="#1c1c1c" d="M21.27 13.698c.017-.157-.073-.174-.024-.31.092-.047.343-.007.463.004l.142.164-.088.056c-.012.22.163.163.225.372.12.046.23.044.36.053.106-.011.259-.044.344.002.031.096-.014.172.012.338l.152.035c-.169.099-.272.028-.481.014.152.11.18.057.268.107-.06.024-.083.029-.134.067-.569-.013-.709-.087-1.262-.193-.347-.067-.814-.067-1.172-.173-.35-.104-.696-.295-1.049-.374l-.04-.008.042-.075.104-.017c.067-.07.046-.072.063-.19.282-.05.483.193.823.171.214.037.303.047.519-.031l.071.042c.076.054.122.102.213.103.298.002.206-.059.45-.157"/><path fill="#383738" d="M21.27 13.698c.017-.157-.073-.174-.024-.31.092-.047.343-.007.463.004l.142.164-.088.056c-.012.22.163.163.225.372-.024.008-.06.011-.086.016l-.085-.108c-.198.07.014.008-.07.164-.098.039-.631-.086-.779-.113l-.082.057-.042-.027-.023-.118c.298.002.206-.059.45-.157"/><path fill="#444" d="M21.27 13.698c.017-.157-.073-.174-.024-.31.092-.047.343-.007.463.004l.142.164-.088.056c-.248-.005-.279.182-.45.137z"/><path fill="#eae9ea" d="M21.85 13.556a.68.68 0 0 1-.488-.07l.003-.036c.091-.062.226-.052.344-.058z"/><path fill="#323232" d="M20.018 13.741c.214.037.303.047.519-.031l.071.042c-.026.162-.075.248-.146.394a2.3 2.3 0 0 0-.414-.222c.032.014.003-.114-.03-.183"/><path fill="#7c7c7d" d="M22.375 14.426c-.012-.006-.507-.098-.644-.14.118-.052.51.026.643.052.1.01.235.019.33.04l.152.034c-.169.099-.272.028-.481.014"/><path fill="#272727" d="M22.349 14.037c.105-.011.258-.044.343.002.031.096-.014.172.012.338-.095-.02-.23-.03-.33-.04l.094-.025c.063-.062.045-.026.055-.115-.08-.092-.03-.06-.163-.087z"/><path fill="#272727" d="m21.817 13.892.085.108c.026-.004.061-.008.086-.016.12.046.23.044.36.053l.011.073-.055.05c-.236-.028-.423-.035-.487-.268"/><path fill="#323232" d="M20.692 14.117c.127-.009.4-.013.515.038l.013.058c-.162.07-.39-.002-.528-.096M11.484 7.492c.124-.1.117-.111.266-.111.083.074.09.119.09.228l-.005.042c.056.16.053.221.05.386.096.127.232.037.379.047-.073.13-.093.142-.215.233-.151.022-.175.036-.313.103l-.03-.012.037-.045a.5.5 0 0 0 .083-.126c-.184-.014-.482.463-.564.608-.193.061.003.086-.182.097-.058-.078-.093-.15-.183-.18-.136.003-.28-.009-.396.047-.008.031-.02.065-.025.096-.035-.08-.059-.156-.087-.238l.123-.03-.129-.062c-.058-.085-.04-.057-.034-.182V8.34c-.034.076-.084.096-.156.143-.205.006-.196-.245-.254-.387-.065-.159-.217-.064-.288-.25.196-.032.286-.086.47-.135.104.019.104.03.183.094.127-.01.398-.006.499.076 0 .056 0 .102.02.155l.057.01c.06-.068.062-.083.1-.16l.064.012c-.034.062-.028.04-.03.106l.13-.037-.034.045.022.03c.083-.001.108.008.173-.038-.064-.128-.404-.189-.479-.354.174-.034.314-.04.468-.127.05-.028.042-.06.063-.133z"/><path fill="#232222" d="M11.484 7.492c.124-.1.117-.111.266-.111.084.074.09.119.09.228l-.005.042c.057.16.053.221.05.386.096.127.233.037.38.047-.074.13-.094.142-.216.233-.085-.209-.238-.284-.452-.188h-.01a3.5 3.5 0 0 0-.655-.045c.033-.076.048-.133.112-.187-.033.062-.028.04-.029.106l.13-.037-.035.045.022.03c.083-.001.108.008.173-.038-.064-.128-.403-.189-.478-.354.173-.034.313-.04.468-.127.05-.028.041-.06.063-.133z"/><path fill="#383738" d="M11.484 7.492c.124-.1.117-.111.266-.111.083.074.09.119.09.228l-.005.042-.04.162c-.108.082-.152.156-.263.17l-.133-.104c-.082-.132-.38.003-.408-.155.133-.086.238.001.358-.09.007-.068.006-.174.008-.245z"/><path fill="#272727" d="M11.483 7.492c.124-.1.118-.111.266-.111.084.074.091.119.09.228l-.004.042-.04.162c-.18-.09-.291-.224-.388-.263l-.058.085c.006-.069.006-.175.008-.246z"/><path fill="#1c1c1c" d="M11.484 7.492c.124-.1.117-.111.266-.111.083.074.09.119.09.228-.06-.03-.285-.095-.356-.117M10.35 8.339c-.035.076-.085.096-.157.143-.205.006-.196-.245-.254-.387-.065-.159-.217-.065-.288-.25.196-.032.286-.086.47-.135.104.019.104.03.183.094.127-.01.398-.006.499.076 0 .056 0 .101.02.154l.057.01c.06-.067.062-.082.1-.16l.064.013c-.065.053-.08.11-.112.187-.113.003-.306 0-.41.025l-.032.044.034.048c.087.007.1.002.188-.01.081.051.055.017.088.1-.087.116-.303.078-.45.102z"/><path fill="#272727" d="M10.35 8.339c-.035.076-.085.096-.157.143-.205.006-.196-.245-.254-.387-.065-.159-.217-.065-.288-.25.196-.032.286-.086.47-.135.104.019.104.03.183.094l-.069.073-.12-.005-.042.044c.021.224.226.293.277.423"/><path fill="#444" d="M11.597 8.13c.214-.097.367-.022.452.186-.151.023-.175.037-.312.104l-.031-.012.037-.045a.5.5 0 0 0 .083-.126c-.184-.014-.482.462-.564.608-.115-.17.04-.288.139-.425.08-.112.051-.127.023-.247l.038-.025.108.033z"/><path fill="#232222" d="M10.513 8.638c.1-.024.1-.03.208-.012.076.052.106.076.176.136-.135.003-.279-.009-.396.047-.008.031-.02.065-.025.096-.034-.08-.059-.156-.087-.239z"/><path fill="#444" d="M10.537 8.41c.113-.013.232-.046.312.031l-.018.073c-.098.034-.119.047-.226.048-.076-.067-.043-.027-.068-.153"/><path fill="#272727" d="m21.602 6.427-.09-.037-.007-.04c.238-.11.306.037.467.144.377.251.74.442 1.052.774q.062.065.13.122c.128.027.121.004.183.08-.006.118-.027.109.033.174.029.064.055.114.068.183-.06.079-.104.127-.167.21-.065.076-.262.317-.338.344l-.04-.012-.099-.029c-.2-.06-.263-.023-.463.052-.001-.084.01-.046-.032-.117-.106.047-.121.073-.225.034l-.047-.139.027-.003c.08.062.036.043.142.056l.034-.03c-.048-.115-.104-.153-.228-.13.03-.082.046-.104.032-.19-.104-.006-.096.01-.17-.04l.012-.046c.092-.058.147-.102.232-.17l.039-.041c.044-.182.19-.235.223-.417.025-.138-.244-.415-.373-.43-.057.07-.038.03-.044.131.062.092.095.098.193.14-.24.059-.166.079-.334.15-.2-.026-.269-.098-.317-.277.023-.088.069-.11.143-.166.038-.126.06-.178-.036-.28"/><path fill="#232222" d="m21.602 6.427-.09-.037-.007-.04c.238-.11.306.037.467.144.377.251.74.442 1.052.774q.062.065.13.122c.036.154.06.136.006.248-.033.014-.057.036-.09.013-.248-.182-.104-.364-.488-.267-.186.048-.12.008-.266.152-.124-.004-.07-.02-.17.04.045-.182.19-.235.224-.417.025-.138-.244-.415-.373-.43-.057.07-.038.03-.044.131.062.092.095.098.193.14-.24.059-.166.079-.334.15-.2-.026-.269-.098-.317-.277.023-.088.069-.11.143-.166.038-.126.06-.178-.036-.28"/><path fill="#383738" d="m21.602 6.427.056-.066c.233-.008.27.49.206.639-.07-.005-.131-.091-.214-.155l-.011-.138c.038-.126.058-.178-.037-.28"/><path fill="#a9abab" d="M22.131 6.687c.157.034.26.145.37.25-.178-.01-.274-.119-.37-.25"/><path fill="#171617" d="M22.316 7.536c.146-.144.08-.104.266-.151.384-.098.24.084.489.266.032.023.056 0 .09-.012.053-.113.03-.095-.007-.249.128.027.122.004.183.08-.005.118-.027.109.033.174-.085.064-.082.057-.122.153-.174.06-.16.097-.31-.011-.13-.004-.14.051-.267.083-.124.136-.16.115-.346.122l-.048.058-.04-.009-.036-.145c-.076-.12-.073-.134-.093-.277l.04-.042c.097-.06.044-.044.168-.04"/><path fill="#323232" d="M22.147 7.576c.098-.06.045-.044.17-.04-.04.12-.081.237-.116.359-.076-.12-.073-.134-.093-.277z"/><path fill="#383738" d="M23.248 7.797c.04-.096.037-.09.122-.153.029.064.055.114.068.183-.06.079-.104.127-.167.21-.127.072-.26.169-.4.182l-.037-.033.013-.054c.1-.028.191-.038.25-.113.025-.174.006-.135.151-.222M10.303 13.984c.158-.148.293-.308.47-.451.93-.75 1.57-1.757 2.4-2.605.153-.157.15-.55.439-.643.096.04.063.016.116.136-.389.367-.905 1.56-1.414 1.986-.126.167-.39.528-.523.664-.1.115-.173.215-.301.3-.233.268-1.082.985-1.382 1.178-.086.113-.203.144-.341.203l-.016-.041.05-.055c.076-.025.128-.034.184-.09l-.036-.009c.049-.126.169-.285.248-.402l-.02.012c.001-.05.086-.135.126-.183"/><path fill="#444" d="m10.108 14.549-.026-.05c.008-.218.589-.732.775-.88.249-.196.313-.258.633-.249-.233.27-1.082.986-1.383 1.179M11.79 13.071c-.047-.197.234-.6.451-.693l.072.029c-.125.167-.39.528-.522.664"/><path fill="#272727" d="M8.678 9.618c-.01.049-.004.06-.001.11l.036.01c.15-.106.085-.145.265-.213a.4.4 0 0 1-.159.24c.027.103.033.111.08.203l-.05.097.063-.016.099-.315c.028-.093-.074.019-.005-.145.039.066.06.105.093.176l-.03.064c-.073.128-.03.204-.012.376l.006-.071c.066.13.033.108.143.183.077.172.105.186.075.361-.158.193-.335.013-.39.25-.018.076.005.196-.003.283l-.08-.01a1 1 0 0 0-.106.126l-.053.004c-.052-.087-.056-.135-.131-.162-.038.027-.053.029-.071.063.007.153-.002.18-.046.328-.06.06-.055.056-.137.084-.182-.088-.147-.22-.203-.354-.029-.069-.313.047-.473-.085.085-.054.182-.173.269-.236.084-.062.053-.198.047-.297a1 1 0 0 1 .1-.069l-.048-.115c.084-.056.037-.039.148-.044.101-.065.139-.222.184-.34l.01-.038c.119-.192.18-.336.38-.448"/><path fill="#2e2d2e" d="M7.588 11.205c.085-.054.182-.173.269-.236.084-.062.053-.198.047-.297a1 1 0 0 1 .1-.069l-.048-.115c.084-.056.037-.039.148-.044.101-.065.139-.222.184-.34.081.054.1.053.194.079l.059.063c-.104.037-.153.096-.284.157-.06.088-.045.041-.05.143.11.08.161.06.32.087-.024.085-.013.054-.072.129.097.111.133.022.16.133a.44.44 0 0 1-.147.166l-.073.104c.027.06.006.042.052.067.007.153-.002.18-.046.328-.06.06-.055.056-.137.085-.182-.089-.147-.22-.203-.355-.029-.069-.313.047-.473-.085"/><path fill="#444" d="M8.401 11.56c-.087-.178-.07-.248-.132-.399-.093-.053-.043-.043-.156-.022-.038.064-.023.047-.076.099-.094-.034-.057-.007-.114-.085.06-.186.27-.245.47-.207.038.007.056.075.075.115l-.073.104c.027.06.006.042.052.067.007.153-.002.179-.046.328"/><path fill="#323232" d="M8.298 10.066c.164 0 .304.016.409.148l-.01.06c-.083.045-.043.043-.121.032l-.035-.06-.06-.063c-.093-.026-.112-.025-.193-.079z"/><path fill="#1c1c1c" d="M15.029 6.574c.05.095.06.084.025.19.121.047.299.306.288.42l-.006.051c-.04.036-.145.135-.185.158l-.09.08-.033.086c-.072.027-.107.03-.155.08-.115.076-.147.019-.265-.043-.118.118-.133.06-.223.166l-.104.148c-.117.018-.062-.014-.186-.069l-.17.09-.008.064a.6.6 0 0 0-.12.095l.018.063.007.007.161.216-.016.034c-.187-.014-.474-.048-.585-.201-.014-.125-.022-.075.058-.196-.085-.067-.082-.069-.136-.156.025-.168.15-.033.229-.237l-.033-.06.158-.067-.038-.078-.198-.16c.002-.053.089-.117.14-.169l.102-.03c.086.118.151.189.3.16.185-.24.14-.17.416-.11.264-.095.12-.371.287-.494.067.038.048.01.068.078-.092.143-.102.13-.013.272.035.021.013.012.07.02.054-.266-.03-.294.237-.408"/><path fill="#272727" d="m13.658 7.493.127-.017c.094.042.142.075.246.071.094-.1-.095-.072-.074-.241l.114-.002c.013-.061.01-.071.006-.133.082-.021.12.024.222.077-.025.12-.097.014-.167.166.15.021.159.019.283.095.093-.009.107-.017.194-.047l.056.021c-.027.058-.023.051-.057.102v.011c-.118.118-.133.061-.223.166l-.104.148c-.117.018-.062-.014-.186-.069l-.17.09-.008.064a.6.6 0 0 0-.12.095l.018.063.007.007.161.216-.016.034c-.187-.014-.474-.048-.585-.2-.014-.126-.022-.076.058-.197-.085-.067-.082-.069-.136-.156.025-.168.15-.033.229-.237l-.033-.06z"/><path fill="#383738" d="M14.132 7.414c.15.021.16.019.283.095.094-.009.108-.017.194-.047l.056.021c-.026.058-.022.051-.057.102v.011c-.118.118-.133.061-.223.166l-.104.148c-.117.018-.062-.014-.186-.069l-.17.09-.036.054-.047.001c-.119-.094-.205-.281-.126-.417.174-.046.18.07.35.032.077-.084.053-.053.066-.187"/><path fill="#272727" d="M14.095 7.841c.021-.04.037-.098.051-.142.084-.053.083-.046.184-.057l.057.047-.002.073-.104.148c-.117.018-.062-.014-.186-.069"/><path fill="#383738" d="m13.44 8.013.011-.055-.099-.112.027-.043c.138.001.331.243.351.36.055.014.027.015.085-.01l.007.007.161.216-.016.034c-.187-.014-.474-.048-.585-.2-.014-.126-.022-.076.058-.197"/><path fill="#444" d="M15.029 6.574c.05.095.061.084.025.19.121.047.299.306.288.42l-.006.051c-.04.036-.145.135-.185.158l-.09.08c-.117-.004-.2-.12-.263-.2l-.02-.029c-.11-.007-.202.004-.278-.062.035-.074.078-.184.135-.238l.087.018c.035.021.013.012.07.02.054-.266-.03-.294.237-.408"/><path fill="#383738" d="m13.563 7.086.101-.03c.042.182.072.206-.044.36l-.198-.161c.002-.053.089-.117.14-.169M15.742 6.592c.29-.36.3-.233.691-.447.127-.069.152-.182.16-.314.135.087.026.191.158.307a.3.3 0 0 1 .133-.025c.112.027.077-.088.172-.085.127.004.317.098.436.118a6 6 0 0 1 .347-.078l.022.033-.051.11c-.053.117-.058.08-.021.165.11.059.057.055.162.037l-.023-.006-.045.027-.003-.023-.14.026c-.054.118-.058.131-.18.117-.104-.084-.11-.094-.188-.203l-.074.074.007.04c.125.053.094.022.17.118.082.376-.276.24-.425.635l-.083.019c-.185.026-.279.002-.46-.027l-.074.027c-.091-.008-.41-.258-.5-.325.042-.061.03-.029.027-.102.064-.095.089-.114.083-.227l-.052-.042c-.126-.014-.131-.007-.249.051"/><path fill="#1c1c1c" d="M15.742 6.592c.29-.36.3-.233.691-.447.127-.069.152-.182.16-.314.135.087.026.191.158.307a.3.3 0 0 1 .133-.025c.112.027.077-.088.172-.085.127.004.317.098.436.118a6 6 0 0 1 .347-.078l.022.033-.051.11c-.053.117-.058.08-.021.165.11.059.057.055.162.037l-.023-.006-.045.027-.003-.023-.14.026c-.054.118-.058.131-.18.117-.104-.084-.11-.094-.188-.203l-.074.074c-.148-.181-.241-.148-.45-.084l-.05-.005a1 1 0 0 1-.123-.02c-.047-.06-.078-.106-.138-.154l-.052.003c-.012.07-.006.071-.045.13l-.148.002-.014.048c.126.088.283.142.36.24.023.162-.119.172-.25.191-.06.19.028.266.045.461-.091-.008-.41-.258-.5-.325.042-.061.03-.029.027-.102.064-.095.089-.114.083-.227l-.052-.042c-.126-.014-.131-.007-.249.051"/><path fill="#2e2d2e" d="M17.372 6.35c.077-.079.137-.076.25-.096l.091.026c.016.065.021.091.028.157-.055.118-.059.13-.18.117-.105-.084-.111-.094-.19-.203"/><path fill="#272727" d="M16.848 6.34c.209-.063.302-.096.45.085l.007.04c.125.053.094.022.17.118.082.376-.276.24-.425.635l-.083.019c-.185.026-.279.002-.46-.027.17-.023.138-.001.25-.1.146-.04.151-.053.217-.16.023-.17.173-.305.3-.43-.14-.236-.182-.112-.426-.18"/><path fill="#eae9ea" d="M17.274 6.52c.061.19-.145.338-.3.43.023-.17.173-.305.3-.43"/><path fill="#2e2d2e" d="M16.434 7.237c-.018-.195-.105-.272-.046-.461.01.08.01.124.044.2l.07.028c.152-.066.174-.132.296-.145l.052.037c-.07.134-.172.025-.092.213-.113.1-.08.078-.25.101z"/><path fill="#232222" d="M8.273 7.527c.11.025.161.106.237.19l-.212.22c-.068.06-.128.116-.207.16-.24.134-.25.31-.529.331-.042.27-.298.485-.472.718-.168.225-.343.587-.513.78-.074.077-.216.222-.265.312-.093-.112-.16-.074-.297-.044l-.057-.028c-.014-.08-.014-.077-.005-.157l.008-.012a1 1 0 0 1 .307-.344c.103-.068.054-.173.102-.24.073-.1.177-.188.251-.292.29-.404 1.18-1.468 1.65-1.558z"/><path fill="#272727" d="M5.953 10.01c.319.003.468-.153.624-.083-.074.077-.216.222-.265.31-.093-.111-.16-.073-.297-.043l-.057-.028c-.014-.08-.014-.077-.005-.157"/><path fill="#2e2d2e" d="M8.273 7.527c.109.025.161.106.237.19l-.213.22c-.155-.195-.132-.163-.027-.374zM24.883 14.48c.047-.014.198-.039.252-.05.097.03.226.072.323.091.05.127.109.23.074.358-.09.33.068.309.068.58.008.111.01.117.043.223.171.23.136.486.109.766-.02.2-.087.246-.235.383l.013-.18c-.087.028-.262-.007-.369-.018l-.022-.06c-.026-.092-.022-.222-.024-.32-.009-.315-.014-.651-.115-.952a1.4 1.4 0 0 1-.066-.25l-.006-.032c-.023-.148-.033-.384-.045-.54"/><path fill="#1c1c1c" d="M25.365 15.693c.088-.006.193-.017.278-.011.171.23.136.486.11.766-.02.2-.088.246-.236.383l.013-.18c-.087.028-.262-.007-.369-.018l-.022-.06c-.026-.092-.022-.222-.024-.32.05.085.084.172.188.193.057-.236-.083-.496.062-.753"/><path fill="#2e2d2e" d="M25.14 16.574c.118-.053.318-.034.39.078-.087.027-.262-.008-.369-.019z"/><path fill="#383738" d="M24.883 14.48c.047-.014.198-.039.252-.05.001.1.023.236.017.322.1.153.167.09.146.2-.02.103-.068.163-.085.287l-.057.01c-.06-.123.03-.136.003-.226-.091.003-.14.011-.23-.004-.024-.148-.034-.384-.046-.54"/><path fill="#171617" d="M25.365 15.693c-.082-.148-.13-.176-.054-.33.084-.034.058-.022.157-.02.081.047.068.045.131.116.01.11.01.117.044.223-.086-.006-.19.005-.278.011"/><path fill="#383738" d="M10.515 12.569c.079-.219 1.079-.647 1.306-.689l.022.049c-.265.318-.617.765-.911 1.042-.036.563-.439.592-.721.944l-.026.012a1 1 0 0 0-.112-.014l-.028.047.057.045c-.036.035-.026.02-.101.025-.04-.185.05-.013.052-.21-.084-.07-.088-.069-.147-.164-.008-.09.002-.09.045-.174.058.042.026.026.096.047.118-.114.126-.392.147-.558.101-.102.204-.056.268-.102.004-.227-.147-.125-.307-.307l.018-.045.069-.008c.107.073.164.147.272.06"/><path fill="#171617" d="M10.515 12.569c.15-.048.23-.104.363-.085l.03.047c-.046.161-.144.14-.195.269l-.03.007c-.09-.053-.076-.066-.156-.052-.02.087.017.131.06.214a.8.8 0 0 1-.275-.003c-.14.182-.193.605-.123.822l-.027.082.049.045-.026.012a1 1 0 0 0-.112-.014l-.028.047.057.045c-.036.035-.026.02-.101.025-.04-.185.05-.013.052-.21-.084-.07-.088-.069-.147-.165-.008-.09.002-.09.045-.173.058.042.026.026.096.047.118-.114.126-.392.147-.558.101-.102.204-.056.268-.102.004-.227-.147-.125-.307-.307l.018-.045.069-.008c.107.073.164.147.272.06"/><path fill="#272727" d="m10.587 12.969-.02.05c-.147.056-.268.225-.37.339-.028.03-.02.192-.018.238l.028.036c.082-.056.046-.027.093-.14.377-.251.3-.208.632-.521-.036.563-.439.591-.721.944l-.049-.045.027-.082c-.07-.217-.016-.64.123-.822a.8.8 0 0 0 .275.003"/><path fill="#232222" d="M10.514 12.569c.08-.219 1.08-.647 1.307-.689l.022.049c-.18.02-.32.197-.446.326-.117-.066-.099-.08-.214-.08-.083.128-.235.754-.483.69l-.017-.058.03-.007c.051-.13.149-.108.195-.269l-.03-.047c-.134-.02-.213.038-.364.085"/><path fill="#eae9ea" d="M11.397 12.255c.126-.13.265-.306.446-.327-.265.32-.618.766-.911 1.043-.332.313-.256.27-.632.522.01-.088.139-.206.212-.26.35-.262.59-.696.885-.978"/><path fill="#383738" d="M13.298 5.539c.206-.033.536-.104.731-.051l.01.042c-.104.106-.145.15-.299.186-.022.042-.1.181-.134.195-.293.122-.922.462-1.184.54l-.047.013-.04.023c-.163.093-.19.114-.293.271-.074-.016-.09-.077-.147-.16-.278-.23-.298-.484.058-.647.054 0 1.198-.368 1.345-.412m-1.396.834.016.189c.265-.1.578-.347.847-.46.112-.047.192-.092.298-.15.048-.047.366-.174.434-.2l-.024-.04c-.32.067-1.08.264-1.369.387-.064.088-.133.191-.202.274"/><path fill="#171617" d="m13.69 5.721.05-.004c-.022.04-.1.18-.134.194-.293.122-.923.462-1.184.54l-.047.013-.04.023c-.164.093-.19.114-.293.272-.075-.017-.09-.078-.148-.162l.024-.035c.265-.1.578-.347.846-.46.113-.047.193-.092.3-.15.047-.047.365-.174.432-.2z"/><path fill="#272727" d="M11.918 6.562c.265-.1.578-.347.846-.46.113-.047.193-.092.3-.15-.042.227-.498.354-.689.512l-.04.023c-.164.093-.19.114-.293.271-.075-.016-.09-.077-.148-.16zM13.298 5.539c.206-.033.536-.104.731-.051l.01.042c-.104.106-.145.15-.299.186l-.05.005a.52.52 0 0 0-.392-.182"/><path fill="#171617" d="M11.895 6.597c-.278-.23-.298-.483.058-.646-.087.175-.084.23-.051.422l.016.19z"/><path fill="#232222" d="m25.179 17.466.297.032c-.01.15-.002.398-.037.526.008.43-.385 2.08-.629 2.39a1.8 1.8 0 0 0-.366.05c.233-.555.653-2.08.665-2.681.016-.1.047-.218.07-.317"/><path fill="#171617" d="m25.18 17.466.296.032c-.01.15-.001.398-.036.526-.02-.14.034-.382-.164-.416-.125.067-.085.041-.166.174.016-.099.047-.217.07-.316"/><path fill="#383738" d="M23.885 9.076c.125-.129.284-.353.446-.37.032.06.02.128.01.117.163.187.23.105.273.343.324.494.649 1.088.982 1.542l-.005.021c-.096-.043-.222-.174-.305-.25-.033.011-.165.06-.19.064l-.149-.17c-.143-.076-.086-.056-.293-.006l-.029-.035.032-.099c.102-.089.187-.143.228-.265-.036-.22-.27-.25-.429-.438l-.159.137c-.069.04-.072.052-.15.055-.016-.109-.017-.24-.091-.315-.098-.032-.114-.031-.2-.09-.032-.135-.023-.091.03-.241"/><path fill="#eae9ea" d="M25.286 10.479c-.19-.449-.39-.73-.724-1.09-.05-.055-.032-.123-.018-.185l.07-.038c.324.494.649 1.088.982 1.541l-.005.022c-.096-.043-.221-.174-.305-.25"/><path fill="#1c1c1c" d="M24.297 9.666c-.069.041-.072.053-.15.056-.016-.11-.017-.24-.091-.315-.098-.032-.114-.032-.2-.09-.032-.135-.023-.091.03-.241.134.129.19.11.336.271.092.047.204.087.234.183z"/><path fill="#272727" d="M24.222 9.348c.092.046.204.086.234.182l-.159.136c-.076-.042-.06-.034-.125-.094-.026-.095.007-.134.05-.224"/><path fill="#272627" d="M21.347 7.411c.045-.058.043-.053.113-.081.053.082.053.286.04.383l.123-.101.036.02c.024.15.002.317.072.41.107.035.282.036.323.125l-.027.003c-.165-.018-.15-.044-.26.02-.104.187-.07.269-.068.481l.032.055c-.161.002-.234-.043-.388-.083-.088.023-.139.03-.227.043l-.077.063c-.095-.01-.054.006-.13-.047a.93.93 0 0 1-.087-.542l.076-.097.178-.38h.048l.083-.03.028-.065z"/><path fill="#444" d="m20.898 8.063.104.026c.097.187-.087.282-.047.476l.06.067.052-.008c.054-.082.089-.141.136-.228.099-.008.056-.005.165.041l.017.045c-.087.075-.087.07-.2.11l-.07.094-.076.063c-.095-.01-.054.006-.13-.047a.93.93 0 0 1-.087-.542z"/><path fill="#323232" d="M21.347 7.411c.1.091.137.147.088.282l-.058.02c-.083-.05-.079-.05-.142-.125z"/><path fill="#272727" d="M8.732 15.13c-.008.009 1.642-1.173 1.57-1.146-.039.048-.124.133-.124.183l.02-.012c-.08.117-.2.276-.25.402l.037.01c-.056.055-.108.064-.185.089l-.05.055.017.04c-.29.284-1.695 1.131-2.114 1.287-.19-.238.578-.613.735-.684z"/><path fill="#323232" d="M8.732 15.13c-.02.125-.02.118-.093.223-.115.062-.13.072-.25.001zM7.224 11.454c.216-.042.127.074.285.066.014-.092-.003-.062.053-.13l.08.027.02.097c.077.047.143.026.238.016l-.005.055-.02.007c-.204.082-.373.278-.222.483l.053.018c-.262.153-.462.601-.885.615-.097-.043-.072-.01-.11-.08.27-.583.02-.37.053-.653l.083-.02.061-.011c.115-.014.06.003.162-.07.042-.082.045-.15.097-.178l.081.052.037-.016c-.022-.085-.103-.097-.215-.168.03-.067.068-.066.154-.11"/><path fill="#171617" d="m7.653 12.075.053.018c-.262.153-.462.6-.885.615-.097-.043-.072-.01-.11-.08.27-.583.02-.37.053-.653l.083-.02-.052.053c.079.08.12-.053.103.14.075.02.038.017.112.01.133.075.202.124.353.157l.064-.017c.077-.136.08-.16.226-.223"/><path fill="#1c1c1c" d="M7.07 11.875c.064.048.092.042.171.046.048.074.028.068.008.18l-.047.04c-.1-.037-.14-.097-.213-.174l-.08-.023c.114-.014.06.004.162-.07"/><path fill="#232222" d="m17.786 11.456.095-.031c.162.103.196.247.011.348-.055.15-.029.236-.095.32l-.1.042c-.008.109-.026.066.026.143.274.013.288-.24.506-.007-.02.035-.074.124-.088.156-.012.019-.042.047-.058.064-.141.024-.255-.044-.41-.06l-.026-.008-.077-.005-.08-.026-.14.047c-.163-.015-.544-.28-.535-.453.066-.01.11-.012.159-.058.16-.154.035.034.27.033.026-.14-.023-.276.099-.37.127.015.161.078.288.142.059-.127.022-.083.153-.156zm-.827.612c.2.185.255.202.505.301.041-.186.07-.29.068-.48l-.057-.024c-.04.046-.03.024-.04.059-.033.05-.051.074-.088.122-.12.055-.25.03-.388.022"/><path fill="#383738" d="m17.532 11.889.048-.072.05.002c.065.102.024.274-.005.39q-.026.105-.055.209l-.08-.026-.14.047c-.163-.015-.544-.28-.535-.453.066-.01.11-.012.159-.058.16-.154.035.034.27.033.112-.063.051-.047.191-.037-.033.05-.051.074-.088.122-.12.055-.25.03-.388.022.2.185.255.202.505.301.041-.186.07-.29.068-.48"/><path fill="#272727" d="m17.647 12.423-.002-.06c.141-.024.39-.037.496.064-.012.019-.042.047-.058.064-.141.025-.255-.044-.41-.06z"/><path fill="#323232" d="M8.846 11.816c.103-.194.15-.151.367-.165l.081.013c.053.087.042.19.025.288l-.03.102c0 .054-.002.12.002.174l.01.051-.016.05.057.055.062.023c.097-.011.103-.024.19.006l-.013.042c-.226.074-.304.057-.545.052-.01.14-.005.207-.066.338l-.059.044-.015-.05-.076-.07c-.118.011-.224.032-.323-.024-.08-.091-.078-.099-.097-.22.05-.108.108-.098.16-.187.105-.179.151-.36.286-.522"/><path fill="#232222" d="m8.846 11.816.068.13-.093.092c-.078.108-.206.33-.211.46.122.114.441-.039.632-.06.082.018.06.014.143.012l.019-.043c.097-.011.103-.024.19.006l-.013.042c-.226.074-.304.057-.545.052-.01.14-.005.207-.066.338l-.059.044-.015-.05-.076-.07c-.118.01-.224.032-.323-.024-.08-.091-.078-.099-.097-.221.05-.107.108-.097.16-.186.105-.179.151-.36.286-.522"/><path fill="#272727" d="M8.846 11.816c.103-.194.15-.151.367-.165l.081.013c.053.087.042.19.025.288l-.03.102c0 .054-.002.12.002.174-.173-.06-.22-.024-.333-.153a1 1 0 0 0-.044-.129z"/><path fill="#383738" d="M9.074 11.81h.046c.047.07.092.114.083.194l-.031.015c-.057-.06-.099-.125-.098-.208"/><path fill="#444" d="M8.914 11.946q.026.064.044.129c.113.129.16.092.333.153l.01.051-.016.05.057.055.062.023-.02.043c-.082.002-.06.006-.142-.011-.244-.128-.306-.168-.421-.4z"/><path fill="#323232" d="M9.86 9.14a2 2 0 0 0-.232-.123l-.002-.033c.148-.05.33-.01.477.03.102.144-.069.207.003.4l.028.024.07.055c-.016.13-.112.119-.21.274l.028.126-.028.035c-.075.007-.11 0-.17.036l-.109.1c-.088.006-.093.002-.18-.017l-.066.022c-.058-.04-.144-.195-.301-.196-.069 0-.026.01-.099-.044l.03-.064a2 2 0 0 0-.093-.177c.152-.096.226.003.364-.074.031-.15-.007-.256.017-.363l.071.01.02.052a.8.8 0 0 0 .253.201c.1-.069.1-.152.129-.273"/><path fill="#444" d="M9.86 9.14a2 2 0 0 0-.232-.123l-.002-.033c.148-.05.33-.01.477.03.102.144-.069.207.003.4l.028.024c.012.049.01.023.002.078h-.056c-.104-.075-.251-.139-.212-.267.056-.025.084-.037.135-.069l-.041.01-.03-.043zM9.732 9.414l-.046.092c.037.098.037.061.028.156-.145.049-.24.02-.334-.091l.013-.04c.076-.013.043.001.1-.04.009-.078-.048-.184-.081-.262l.018-.036.048.02a.8.8 0 0 0 .254.201"/><path fill="#1c1c1c" d="m6.343 17.867.335-.089c.11.83.317 1.34.457 2.07-.11.056-.054.044-.176.039-.175-.134-.395-.838-.463-1.062l-.04-.197a1.6 1.6 0 0 1-.074-.342 3 3 0 0 1-.04-.419"/><path fill="#19191b" d="M6.457 18.628c.013-.118.009-.145.064-.247.093.161.133.195.088.363-.045.024-.074.05-.113.081z"/><path fill="#272727" d="M6.382 18.287c.078-.01.15.023.227.047l.004.027-.093.02c-.055.102-.05.13-.064.247a1.6 1.6 0 0 1-.074-.341"/><path fill="#1c1c1c" d="M7.224 11.454c.076-.134.074-.228.229-.279a.3.3 0 0 0 .135.03c.16.132.444.016.473.085.056.135.021.266.203.355.081-.029.076-.026.137-.085.044-.149.053-.175.046-.328.017-.034.033-.036.07-.063.076.027.08.075.131.162l.054-.003c.038-.053.06-.078.105-.126l.08.01-.002.096c.174.161.372-.128.55-.107.031.07.02.081.007.16-.063.053-.558.27-.66.28-.255-.1-.14-.306-.272-.41-.09.186.194.745.048.946-.163.145-.231.17-.43.27.111-.167.219-.247.338-.447-.068-.127-.458-.38-.59-.408l.02-.007.004-.055c-.095.01-.16.03-.238-.016l-.02-.096-.08-.027c-.056.067-.039.037-.053.129-.158.008-.069-.108-.285-.066"/><path fill="#171617" d="M7.643 11.418a.6.6 0 0 0 .177-.084c.088-.006.145-.018.227.014.02.108-.058.136-.147.182-.095.01-.16.03-.238-.016z"/><path fill="#272727" d="m8.466 12 .07-.026c.059.075.002.076.023.203-.163.144-.232.17-.43.27.11-.167.218-.248.337-.447M8.762 11.484a1 1 0 0 1 .249.011l.018.033-.054.007c-.098.028-.131.033-.23.048l-.03-.03zM18.764 12.51c.007.078.034.123.067.195.111.016.022-.116.18-.227l.046.013c.056.139-.01.206.026.33.07-.071.132-.14.199-.214.252-.059.295-.26.551-.205.107-.133.208-.238.327-.362l.048-.001-.006.02.012-.025c-.136.345-.137.371-.483.445.132.314-.175.465-.429.62l-.094.008c-.04-.035-.047-.029-.061-.067-.161-.263-.363.024-.785-.26-.086-.102-.141-.144-.065-.265.148-.064.312-.041.467-.006"/><path fill="#1c1c1c" d="m19.147 13.04.073-.006c.126-.092.17-.107.317-.173l.002.002-.023-.046c-.111-.01-.203-.011-.308-.047.383-.096.22-.178.524-.29.132.313-.175.464-.43.62l-.094.007c-.04-.035-.047-.029-.061-.067"/><path fill="#272727" d="M7.63 9.565c.089-.156.128-.304.317-.333-.139.21-.256.33-.321.569-.01.142-.139.124-.213.257-.14.25-.12.572-.435.655-.068.092-.043.153-.04.286-.064.134-.157.212-.313.157-.028-.135.216-.517.203-.569-.1-.418.09-.537.492-.86.022-.062.018-.054.051-.114.087-.02.17-.044.259-.048"/><path fill="#444" d="M7.63 9.565c.089-.156.128-.304.317-.333-.139.21-.256.33-.321.569l-.233.158-.03-.054c.127-.102.18-.205.267-.34"/><path fill="#eae9ea" d="m7.363 9.905.03.054c-.11.137-.133.259-.276.396l-.031-.026c-.011-.202.135-.291.277-.424"/><path fill="#2e2d2e" d="M24.445 20.464c.047-.021.3-.053.365-.05-.072.14-.151.233-.142.369-.09.156-.281.547-.374.65-.11.23-.364.725-.528.924-.058.07-.128.176-.211.195-.07-.043-.044-.015-.08-.086.114-.169.167-.26.26-.442.018-.082.208-.442.26-.557.154-.333.31-.663.45-1.003"/><path fill="#444" d="M24.294 21.434c-.085-.039-.054-.009-.107-.078.02-.106.154-.187.202-.278.063-.119.03-.306.121-.41.1.018.073.02.158.115-.09.156-.281.547-.374.65"/><path fill="#1c1c1c" d="M23.735 22.024c.003.102-.004.245.031.333-.058.07-.128.176-.211.195-.07-.043-.044-.015-.08-.086.114-.169.167-.26.26-.442"/><path fill="#383738" d="m15.305 11.69.2.162c.309.254.723.412.984.685.115.12.188.076.351.202.152.146.323.203.347.409-.345-.182-.73-.35-1.06-.534-.278-.155-.665-.43-.942-.617.037-.11.074-.199.12-.307"/><path fill="#1c1c1c" d="M25.286 10.479c.084.076.21.207.305.25l.005-.021.014.055c.02.077.022.117.03.196l.055.053c.17.098.386.73.34.933l-.04.008c-.147-.167-.138-.226-.22-.427-.111-.052-.196-.077-.311-.118-.073-.172.062-.156.01-.325-.082-.007-.204.075-.34.11l-.051-.03-.013-.058c.086-.107.085-.12.024-.23a1.4 1.4 0 0 1-.17-.092l-.08-.077.005-.045.201-.042.046-.076c.025-.003.157-.053.19-.064"/><path fill="#272727" d="M25.695 11.012c.17.098.385.73.34.933l-.04.008c-.147-.167-.139-.226-.22-.428-.055-.148-.057-.34-.137-.46zM25.286 10.479c.084.076.21.207.305.25-.124.066-.377-.013-.667.054l-.08-.077.005-.045.201-.042.046-.076c.025-.003.157-.053.19-.064M13.778 10.519c.024-.098.033-.201.108-.265.15.065 1 1.214 1.42 1.436a4 4 0 0 0-.121.307 22 22 0 0 1-1.407-1.478M24.386 14.287c.095-.016.205-.048.286-.01l-.017.064-.001.173c-.502.267-1.612.103-2.145.086.05-.038.074-.043.134-.066-.088-.05-.116.002-.268-.108.209.014.312.085.481-.014-.04.01.986-.023 1.02-.023l.476-.105z"/><path fill="#444" d="m23.875 14.389.477-.106-.026.074c-.162.062-.2.059-.377.065zM24.386 14.287c.095-.016.205-.048.286-.01l-.017.064c-.094-.015-.115 0-.204.034l-.028.011-.04-.021z"/><path fill="#272727" d="M15.029 6.575c.07-.079.603-.307.723-.27.028.083-.037.162-.052.274l.015.028.027-.015c.118-.058.123-.065.25-.05l.05.04c.007.114-.018.133-.082.228.003.073.015.041-.028.102-.254.17-.33.124-.553.237l-.037.035c.01-.114-.167-.373-.288-.42.036-.106.025-.095-.025-.19"/><path fill="#323232" d="M21.73 8.726 21.7 8.67c-.002-.212-.037-.294.067-.48.11-.065.096-.04.26-.02l.048.138c.104.039.119.013.225-.034.042.07.03.033.032.117.006.14.047.357.014.46-.163.152-.35.047-.377.19.105-.019.11-.038.192-.006.023.081.026.042-.017.12-.086.028-.044.03-.13-.012-.082-.115-.085.02-.242.02l-.037-.064c.044-.147.086-.236-.003-.374"/><path fill="#272727" d="M16.84 12.739c.217.11.359.136.582.213.13.044.393.326.528.384.108.046.396-.016.515.05.3.18.217.232.563.39l-.043.076c-.637-.13-1.229-.416-1.798-.704-.024-.206-.195-.263-.347-.409"/><path fill="#232222" d="M9.637 8.063c.03.065.283.136.327.272-.039.238-.385.367-.605.393-.091-.102-.07-.106-.2-.104-.233.163-.216.15-.498.147l.025-.369c.025.017.069.06.092.082.117.015.7.006.785-.051-.097-.112-.564-.216-.739-.268.317-.047.64.034.775 0z"/><path fill="#1c1c1c" d="M12.388 7.717c-.07-.2-.082-.303-.32-.324a4 4 0 0 0-.002.207l-.059.038-.058-.021c-.026-.06-.023-.396.001-.452.126-.018.217.046.324.116.166-.027.495-.077.657-.042l-.003.207c-.05.062-.076.092-.118.16.094.083.246.057.415.149-.167.04-.446-.161-.533-.078.094.08.29.133.415.176h-.065l.018-.02-.043.017c-.215-.041-.33.068-.474.03-.07-.098-.063-.13-.155-.163"/><path fill="#272727" d="M12.388 7.717c-.07-.2-.082-.303-.32-.324a4 4 0 0 0-.002.207l-.059.038-.058-.021c-.026-.06-.023-.396.001-.452.126-.018.217.046.324.116.096.131.38.115.263.355-.063.043-.076.06-.149.08"/><path fill="#1c1c1c" d="M23.792 11.117c.054-.033.119-.028.174-.083.334-.338-.242-.544-.227-.827.252-.34.634.111.918.026l-.032.099.028.035c.208-.05.151-.07.294.007-.117.041-.122.041-.224.107a2 2 0 0 1-.119-.044c-.089.089-.192.21-.302.262l-.043-.013c-.094.078-.2.287-.255.401l-.05.016-.144.052-.03-.003z"/><path fill="#232222" d="m17.7 5.237-.054.047-.078-.015-.037-.056c.044-.172.133-.224.319-.21l.01.055c.114-.006.175-.17.28-.17.35.002.702.163 1.07.143.08-.004.382.263.436.345l-.048.034c-.116-.018-.184-.079-.274-.156l-.11.084c-.37-.1-.644-.126-1.027-.254-.153.017-.316.024-.455.082z"/><path fill="#444" d="m18.187 5.084-.138-.016-.023-.04c.189-.244.942.159 1.217.192.044.005.038.007.081.034l-.11.084c-.37-.1-.644-.126-1.027-.254"/><path fill="#1c1c1c" d="m9.063 10.134-.006.071c-.019-.172-.06-.248.012-.376.073.054.03.043.1.044.156.001.242.157.3.196l.066-.022c.087.019.092.023.18.018.063.075.114.155.203.19l.044.108c.009 0 .255-.103.264-.108.088.122.123.126.102.244-.08.067-.202.105-.303.145-.345-.05-.235-.113-.53-.422-.154-.007-.2.013-.328-.077.01.096-.005.051.059.136l-.02.036c-.11-.075-.077-.053-.143-.183"/><path fill="#2e2d2e" d="m9.063 10.134-.006.071c-.019-.172-.06-.248.012-.376.073.054.03.043.1.044.156.001.242.157.3.196-.08.095-.032.072-.131.103-.068-.04-.118-.08-.195-.094z"/><path fill="#232222" d="M5.542 11.593c-.037-.055-.03-.054-.09-.088-.2-.628.007-.506.28-1.021l.012.016c.109-.023.14-.039.246-.004.02.023.057.052.046.08-.084.203-.192.4-.287.6-.082.175-.057.292-.207.416"/><path fill="#2e2d2e" d="M23.192 9.824c-.078-.063-.083-.07-.112-.163-.082-.057-.043-.053-.124-.054.007.09.027.198-.008.276l-.053.01c-.018-.112-.022-.284-.096-.352l-.037.008c.018.112.011.104-.011.214l-.007.03.087.024c-.063.05-.108.076-.176.118l-.009.042c.126.02.093.01.232-.05l.001.031c-.14.088-.49.264-.647.284-.13-.286.102-.543.358-.667.214-.103.07-.114.209-.332.119.05-.064.435.363.345.114.028.073-.002.136.079-.02.102-.014.07-.106.157"/><path fill="#a9abab" d="m22.563 9.829.025.043c-.06.177-.143.204-.313.298-.01-.012-.003-.002-.022-.05.136-.095.235-.146.31-.291"/><path fill="#232222" d="m22.912 11.194-.016-.019c-.005-.114-.023-.065.055-.152.1-.04.138-.029.241-.017.148-.12.092-.465.268-.517.242.158.083.29.147.49.026.083.082-.037.186.138l-.014.035c-.093-.053-.05-.052-.134-.04-.044.146.022.155.06.28-.196-.222-.503.06-.63-.116z"/><path fill="#383738" d="M22.912 11.194c.033-.095.027-.091.108-.153.152-.001.218.063.21.209l-.05.04-.104-.014z"/><path fill="#323232" d="M8.59 22.697c.173.213.405.49.625.654.41.302.654.53.979.917-.148.02-.165-.04-.326-.144-.58-.39-.863-.744-1.27-1.31-.042-.057-.029-.045-.008-.117"/><path fill="#1c1c1c" d="m12.39 8.643-.046-.028c.024-.126.146-.23.289-.194.19.234.087.247.375.327l.022.037c-.022.051-.04.094-.066.143l.01.014c.069.107.054.051.052.17-.077.084-.032.057-.136.09-.23-.12-.142-.32-.313-.395-.077.039-.07.045-.154.053-.086-.154-.024-.064-.032-.217"/><path fill="#2e2d2e" d="M12.39 8.643c.046-.118.009-.076.098-.145.097.004.102.017.181.07-.037.126-.012.128-.097.176a1 1 0 0 1-.181-.1"/><path fill="#1c1c1c" d="m17.786 11.456.048-.092c.121-.036.35-.122.452-.1.058.196-.099.07.021.208.064.014.113.027.179.034l.074.095-.007.038-.155.062c-.087.116-.1.14-.238.188-.058.082-.058.055-.069.14l.063.02c.073-.054.083-.08.133-.153.002.061-.02.12-.06.167-.025.029-.036.034-.065.053-.092-.004-.118-.027-.15-.122.038-.046.07-.086.105-.134-.065-.085-.114-.077-.225-.087.184-.101.15-.245-.011-.348z"/><path fill="#2e2d2e" d="m18.486 11.506.075.095-.007.038-.156.062a.4.4 0 0 0-.13.073l-.042.034-.028-.036c.026-.126.176-.212.288-.266"/><path fill="#323232" d="M26.223 13.772c-.041-.148-.112-.257-.093-.377.107-.048.107-.025.25-.004l-.011.027.129.002.068.387c.045.113.033.333.034.463-.106-.05-.163-.069-.25-.143.021-.094.035-.196-.06-.254a.5.5 0 0 0-.087.107c-.029-.09-.007-.099.02-.208"/><path fill="#1c1c1c" d="M26.223 13.772c-.041-.148-.112-.257-.093-.377.107-.048.107-.025.25-.004l-.011.027.129.002.068.387c-.113-.024-.147-.064-.198-.154z"/><path fill="#eae9ea" d="m26.368 13.419.13.001.068.387c-.113-.024-.147-.063-.199-.154-.005-.068-.024-.12-.044-.185z"/><path fill="#272727" d="M23.163 9.588c.161-.26-.011-.084.078-.277.04.076.04.081.06.164.083.08.095.085.2.139.042.135-.309.784-.418.831-.07-.099-.037-.211-.01-.324-.074-.055-.075-.044-.171-.065l-.016-.04c.1-.178.198-.005.108-.246l.03-.037.033.063.093-.006.027.04-.045.073.048.016c.018-.058.018-.037.012-.095.093-.087.086-.055.107-.157-.063-.08-.022-.05-.136-.079"/><path fill="#232222" d="M9.29 12.054c.116-.022.252-.062.363-.035l.017.036-.048.068c.153.05.416.106.484.232-.11.123-.13.084-.152.212.05.123.068.108.046.215-.092.09-.041.068-.148.097-.352-.12-.035-.376-.033-.496-.107-.154-.244-.202-.43-.16-.049.062-.04.08-.047.161l-.057-.055.017-.05-.01-.051c-.005-.053-.002-.12-.003-.174"/><path fill="#272727" d="M25.161 16.633c.107.011.282.046.37.019l-.014.179c-.11.21.032.432-.041.667l-.297-.032c.02-.194.01-.646-.018-.833"/><path fill="#2e2d2e" d="m10.153 8.955-.024.017-.05-.009-.014-.08c-.09-.11-.085.03-.24-.063-.042-.192.295-.567.564-.153.028.082.053.158.087.238.006.126.027.077-.042.16-.126.021-.193-.035-.28-.11"/><path fill="#383738" d="M10.153 8.955c-.001-.037-.002-.013.017-.072.077-.027.099-.03.163-.079l-.005-.048c-.088-.022-.09-.017-.162-.066.014-.086-.004-.046.07-.115q.073.052.153.092c.028.082.053.158.087.238.006.126.027.077-.042.16-.126.021-.193-.035-.28-.11"/><path fill="#1c1c1c" d="M6.853 14.667c.191.034.275-.016.407.127.006.136-.062.177-.13.34.013.102.008.097.066.183.074.016.121.03.193.052-.107.045-.362.15-.467.138l-.031-.046c.209-.29-.155-.47-.038-.794"/><path fill="#232222" d="M6.408 17.352c.076-.203.054-.732.215-.848-.007.12.012.208.03.324-.006.249-.01.47 0 .72l.025.23-.335.09c.075-.173.054-.322.065-.516"/><path fill="#171617" d="M6.408 17.352c.01.122-.012.126.052.205.07-.002.124-.004.193-.01l.025.231-.335.09c.075-.173.054-.322.065-.516"/><path fill="#1c1c1c" d="M10.515 10.715c.066.023.096.056.145.105l.037.037c.067-.034.077-.044.149-.059.116.1.208.24.261.38l-.02.041c-.103.014-.16-.032-.253-.082l-.053-.004-.101-.115c-.134.037-.41.104-.51-.008.03-.064.253-.197.345-.295"/><path fill="#272727" d="M11.452 9.963c.017.008.06.024.066.038.2.375.251.433-.18.593-.09.034-.068-.009-.175.042l-.044.016-.06-.062a.83.83 0 0 1 .207-.397l.087.046c.029-.214-.03-.13.1-.276"/><path fill="#eae9ea" d="m21.197 26.404-.025.054c-.184.064-.254.152-.41.23-.455.23-.904.5-1.424.477l-.002-.003c.052-.047.651-.24.777-.29.34-.133.75-.376 1.084-.468"/><path fill="#1c1c1c" d="M14.474 9.748c.204.1.433.205.58.38.073.328.306.081.387.389-.068-.017-.064-.013-.132.006l-.01-.083c-.097-.087-.137.048-.216.003-.143-.082-.246-.246-.405-.31-.1-.116-.142-.244-.204-.385M16.424 11.171c.158-.01.404-.003.57-.002l-.202.456c-.132.017-.22.015-.35-.006l-.001-.037.147-.106c-.013-.12-.106-.094-.164-.305"/><path fill="#eae9ea" d="m25.73 20.21.076.03c-.3.779-.475 1.186-1.022 1.843.108-.252.247-.432.379-.673.21-.388.411-.79.567-1.2"/><path fill="#272727" d="M23.493 8.46c.252.105-.017.096.3.23-.002.112-.02.012-.139.146.059.03.056.027.1.074-.05.052-.02.03-.1.049-.109.065-.277.135-.356.006.016-.17.119-.346.195-.506"/><path fill="#171617" d="M8.4 12.524c.02.122.017.13.097.221.099.056.205.035.323.025l.076.069c-.122-.04-.092-.052-.178-.012-.012.084-.01.12-.065.185-.098.018-.104.037-.172.001.027-.089.036-.099.033-.193l-.063-.052c-.148.24-.159.39-.373.503l-.05-.035c.02-.269.35-.525.372-.712"/><path fill="#272727" d="M18.68 10.17c-.008.087-.034.208.008.276l.1.041c-.108.038-.15.044-.234.121v.044l.044.013.114.284c-.009.037-.006.053-.028.077l-.021-.037a1 1 0 0 1-.155-.06c-.083-.14.012-.184-.066-.27-.075.01-.117.024-.184-.005.004-.103.113-.016.217-.151l-.018-.044-.093.023-.037-.021-.039-.187.122.092c.085-.01.188-.127.27-.195"/><path fill="#1c1c1c" d="M7.371 9.613c.164-.093.714-.968.997-.892-.019.052-.331.381-.42.511-.19.028-.23.177-.318.333-.09.004-.172.028-.259.048"/><path fill="#171617" d="M18.23 12.271c.043.162-.038.047-.01.187.103-.021.056.001.135-.086l.013-.11.023-.005.02.162c.145.08.255-.064.353.09-.155-.035-.32-.058-.467.006-.076.121-.021.163.065.264-.366-.117-.429.02-.689-.349.155.017.27.085.41.061.017-.017.046-.045.059-.064.013-.032.067-.12.087-.156"/><path fill="#444" d="M8.678 9.618c.05-.153.105-.218.23-.328.152-.132.112-.214.182-.312.08.116-.01.115.039.28l.138.043c.066.084.045.036.047.154-.118-.022-.252-.024-.336.07-.18.068-.114.107-.266.213l-.036-.01c-.003-.05-.008-.061.002-.11"/><path fill="#272727" d="M22.489 11.568c.145.02.322.089.288.259-.14.045-.09.049-.222.021l-.042.024c-.033.098-.002.065-.072.123-.113-.026-.107-.026-.185-.099-.043-.116-.038-.059-.018-.177.064-.089.145-.107.25-.15"/><path fill="#323232" d="M15.309 10.523c.068-.02.064-.023.132-.006.072.156.172.196.254.31.046.063.07.392.08.486l-.029.02a.8.8 0 0 1-.168-.161l.008-.033c-.034-.257-.254-.323-.277-.616"/><path fill="#232222" d="M18.458 5.407c.303.12.461.348.7.11.017.112-.04.348-.175.38.002.005-.059-.118-.043-.098-.092-.116-.471-.187-.633-.275l.009-.042zM8.273 7.527c.22-.188.503-.24.786-.284-.203.258-.333.252-.55.474-.075-.084-.127-.165-.236-.19M10.42 11.213c.13.01.127-.012.203.053.07.208.102.278.08.492l-.01-.058-.038-.002-.094.112-.015.027-.058-.01c-.045-.078-.088-.519-.067-.614"/><path fill="#1c1c1c" d="m5.348 14.938.039.053c.009.238.075.413.12.642.02.095-.02.122-.072.193l-.07.013c-.19-.11-.079-.724-.017-.901"/><path fill="#171617" d="M14.709 10.216c.148.194.702.812.877.923l-.008.033c-.4-.044-.78-.609-.869-.956"/><path fill="#272727" d="m22.56 13.146-.011.034a.4.4 0 0 1-.233.091c-.161.02-.07.282-.2.398l-.061-.02c-.043-.117-.107-.298-.07-.415.168-.13.355-.053.576-.088"/><path fill="#171617" d="M10.226 10.255c.214-.037.195.009.42.074-.159.22-.296.21-.528.33-.031.016-.043.153-.15.21a.5.5 0 0 1-.256-.094l-.033-.053v.001c.096-.025.192-.069.286-.06v.035l-.098.039c-.003.052-.011.031.012.064.095-.004.125-.074.146-.157.101-.04.223-.078.303-.144.02-.119-.014-.123-.102-.245"/><path fill="#1c1c1c" d="M26.183 16.145c.073.059.196.279.199.378-.094.047-.085.025-.22-.002a.27.27 0 0 0-.148.03l-.054.024c-.041-.243.007-.317.223-.43"/><path fill="#232222" d="m21.07 12.888-.074-.047c.013-.09.024-.109.058-.192.157-.115.275-.002.406.1l.017.057c-.033.058-.011.04-.056.064l-.096.088c-.105.027-.124-.011-.255-.07"/><path fill="#171617" d="M21.07 12.888c.198-.215.115-.04.351-.018l-.096.088c-.106.027-.124-.011-.255-.07M25.241 13.155l.046.024c.037.143.089.238-.005.361-.106.008-.09-.005-.201-.059-.08-.073-.116-.093-.152-.195l.035-.035c.143-.013.17-.005.277-.096"/><path fill="#232222" d="M22.55 6.587c.048-.002.217-.017.258-.001.252.098.423.256.329.528l-.037.014-.072-.09c-.07-.168-.215-.3-.417-.264.111-.042.187-.062.282-.129l-.018-.036a12 12 0 0 0-.326-.022"/><path fill="#272727" d="M5.542 11.593c-.063.504-.156.26-.497.347-.017-.026-.012-.037-.014-.074.122-.177.303-.213.51-.274"/><path fill="#1c1c1c" d="M20.79 11.97c.23.104.055-.04.254.045-.018.077-.07.11-.134.179.113.082.135.093.219.199-.052.043-.04.033-.1.064-.178-.097-.216-.112-.315-.282-.012-.085.03-.13.076-.206M7.957 12.603c.224.243-.103.374-.246.547-.034.041-.067.175-.083.23-.036.019-.013.012-.072.005-.062-.173.269-.499.38-.735z"/><path fill="#272727" d="M4.49 14.476c.08.026.141.039.204.093.026.138-.122.277-.112.53l-.016.112-.026.01c-.07-.101-.048-.59-.05-.745"/><path fill="#383738" d="M18.787 10.935c.1-.008.06.01.13-.046.05.03.1.066.154.083-.047.113-.261.249-.381.291l-.059-.023c-.02-.094.001-.125.053-.213.022-.025.019-.04.028-.078z"/><path fill="#171617" d="M12.931 7.239c.37.092.339-.139.632-.153-.052.052-.14.116-.14.169-.203.233-.256.1-.495.191z"/><path fill="#272727" d="M12.768 8.159c.193.001.493.046.565.252l-.034.096c-.095.027-.063.037-.132.013a.6.6 0 0 0 .006-.168c-.173-.054-.24.03-.345-.017zM11.529 11.166l.043-.013c.105.059.23.111.282.212-.073.06-.082.044-.2.043-.025-.08-.023-.078-.07-.147-.111.029-.243.06-.351.023l-.01-.049.035-.04c.114.01.125.005.24-.022z"/><path fill="#171617" d="M23.157 12.878c.209.027.174.28.016.334-.106-.068-.166-.093-.208-.195.063-.1.062-.076.192-.14"/><path fill="#444" d="M10.125 11.796c.118.117.187.136.333.22l-.02.037h-.124c-.13.008-.254.052-.365.025.033-.103.12-.145.175-.282"/><path fill="#272727" d="M25.386 12.245c.151 0 .345.089.375.237l-.093.075-.01.004c-.029-.086-.158-.011-.29-.143zM25.916 17.822l.075.033c.077.114.06.054.06.184-.094.164-.054.112-.254.205l-.039.018-.022-.04c.077-.143.115-.213.169-.368z"/><path fill="#232222" d="M9.213 11.651c.082-.027.105-.043.191-.035.087.055.082.074.159.063l.025-.073c.083.006.084.03.164.093-.137.075-.221.104-.378.138l-.054.114c.016-.097.027-.2-.026-.287z"/><path fill="#eae9ea" d="m6.637 21.428.03-.246c.17.313.229.588.397.893-.25-.247-.275-.48-.427-.647"/><path fill="#444" d="M13.401 27.158c.214-.026.797.112.989.21l-.06.03c-.219-.047-.76-.15-.929-.24"/><path fill="#232222" d="m9.282 14.027.02.001c.084.13-.016.215-.13.27l-.122-.041c-.072-.017-.05-.006-.105-.06.069-.08.23-.127.337-.17M18.197 5.742c.124.041.159.048.164.167-.058.1-.085.157-.13.264-.02.028-.005.012-.055.036-.044-.056.013-.35.021-.467"/><path fill="#171617" d="M25.606 19.052c.07.023.129.049.196.076.039.103.019.086-.029.22-.118.005-.097.02-.187-.026-.01-.095.007-.175.02-.27"/><path fill="#7c7c7d" d="M26.09 19.403c-.064.35-.256.58-.284.837l-.076-.03c.08-.294.21-.54.36-.807"/><path fill="#1c1c1c" d="M20.763 7.388c.13-.01.162-.033.263.012a1 1 0 0 1 .018.192l.08.091h-.047l-.104-.069c-.023-.03-.126-.12-.16-.15z"/><path fill="#444" d="M20.29 5.173c.204.11.483.138.636.326-.184-.024-.563-.15-.636-.326"/><path fill="#1c1c1c" d="M21.186 6.545c.107.058.122.133.103.236l-.104.063c-.073-.032-.08-.038-.145-.085.004-.105.048-.11.146-.214"/><path fill="#272727" d="M4.464 15.734q.03.026.064.05c.017.218 0 .474.022.693-.036.007-.013.006-.066-.023-.034-.158-.021-.542-.02-.72"/><path fill="#171617" d="M21.313 25.353c.037-.001.015-.004.062.014-.274.17-.313.161-.58.384-.031-.012-.012-.002-.05-.042.198-.206.31-.247.568-.356"/><path fill="#272727" d="M20.316 12.272c.105.01.12.027.21.08.062.101.056.05.028.157-.102-.003-.097 0-.192-.036-.062-.1-.042-.072-.046-.201"/><path fill="#232222" d="M22.056 12.068c.086.004.08.002.148.052.006.101 0 .073-.07.177-.074.013-.07.009-.145-.013-.021-.082.02-.118.067-.216M15.984 11.197c.103.016.373.078.43.147-.132.038-.143.047-.275.027-.1-.057-.1-.069-.155-.174"/><path fill="#7c7c7d" d="M6.637 21.428c-.019-.33-.11-.414-.177-.73l.02.006c.105.17.13.288.186.478zM22.253 24.533c.19-.153.46-.377.677-.477-.136.12-.48.435-.63.495z"/><path fill="#272727" d="M7.979 22.587c.176.056.342.398.43.564-.109-.046-.344-.436-.43-.564"/><path fill="#232222" d="M20.197 13.248q.087.012.173.032c.084.02.19.05.237.124l-.027.042c-.175-.1-.34-.084-.442-.157z"/><path fill="#171617" d="M26.04 15.707c.11-.006.147-.01.254.004.063.08.044.033.03.155-.127-.023-.17-.021-.271-.09z"/><path fill="#444" d="m26.38 13.391.03-.033c-.046-.085-.113-.187-.11-.276l.041-.034c.136.116.085.268.157.372l-.13-.001zM20.896 5.49c.243.007.296.048.495.188-.206.006-.316-.085-.495-.188"/><path fill="#272727" d="M4.534 17.27c.084.099.081.36.08.488-.126-.14-.09-.306-.08-.489"/><path fill="#444" d="M20.577 25.718c.007.007.02.05.023.062-.046.086-.135.117-.227.167l-.029-.053c.042-.084.138-.12.233-.176"/><path fill="#323232" d="M9.513 24.746a.73.73 0 0 1 .35.269c-.18-.071-.257-.106-.35-.269M15.452 27.545c.145-.021.29-.027.43.014a.52.52 0 0 1-.43-.014"/><path fill="#232222" d="M22.3 24.551c-.085.065-.163.152-.27.16l.016-.048c.08-.06.112-.088.207-.13z"/><path fill="#383738" d="M14.454 27.417c.162-.018.2.007.341.079-.173.019-.201.015-.34-.079"/></svg>