<svg xmlns="http://www.w3.org/2000/svg" width="32" height="32" fill="none" viewBox="0 0 32 32"><path fill="#ddd" d="M16.1 1.366a2.56 2.56 0 0 1 1.672.296l.218.138.405.286.405.286q.527.368.937.842l.582.676c.092.107.245.245.49.404l.483.312.483.314c.342.222.665.55.844 1.01s.163.918.064 1.31l-.254 1.007.716.818c.394.449.768 1.122.625 1.936q.386.037.77.077l1 .104c.311.032.723.13 1.085.423.403.327.6.777.638 1.22l.065.76q.035.386.072.891l.04.5.037.5c.04.53-.036 1.051-.214 1.55l-.356 1a1.3 1.3 0 0 0-.082.497l.041 1q.012.323.115.668l.152.5.151.5a2.8 2.8 0 0 1-.088 1.884l-.404 1c-.08.201-.118.384-.124.551l-.036 1q-.018.466-.01.933l.012 1c.004.3-.04.71-.273 1.098a1.72 1.72 0 0 1-1.129.8l-.703.148c-.584.123-1.148-.003-1.61-.183l-.5-.196-.5-.194a.5.5 0 0 0-.285-.036l-1 .177q-.44.078-.884.196l-.5.136-.5.134q-.614.166-1.24.217l-.5.042-.5.04a4.4 4.4 0 0 1-1.432-.12l-1-.25a1.4 1.4 0 0 0-.513-.033l-1 .122a6 6 0 0 1-1.285.02l-.5-.046-.5-.047a11 11 0 0 0-.896-.047l-1-.013a9 9 0 0 0-.865.032l-.5.044-.5.043a1.9 1.9 0 0 1-1.357-.39c-.398-.312-.601-.728-.707-1.08l-.344-1.14c-.242-.803-.08-1.593.402-2.247l.369-.5.263-.354-.134-.276-.24-.5a2.45 2.45 0 0 1-.012-2.145l.236-.5.234-.5a.43.43 0 0 0 .053-.25l-.07-.5-.07-.5q-.065-.466-.155-.933l-.19-1a11 11 0 0 1-.159-1.133l-.043-.5-.044-.5a16 16 0 0 0-.11-.92l-.148-1a3.5 3.5 0 0 1-.047-.618c.003-.087.014-.304.108-.541.099-.247.464-.871 1.275-.872h.072q.108-.026.34-.09l1-.282c.747-.21 1.466-.052 2.07.327l.969.607.001-.002.374-.866a1.5 1.5 0 0 0 .129-.432l-.22-.504-.237-.55a2.1 2.1 0 0 1-.123-1.377c.137-.511.456-.881.788-1.131l.848-.64-.107-1.092a2.3 2.3 0 0 1 .208-1.244c.212-.43.546-.737.92-.937l.49-.263.491-.262c.45-.241.93-.407 1.431-.484zm-.197 16.045a1.999 1.999 0 0 0-.895 3.787l-1.105 2.213h4l-1.107-2.213a1.998 1.998 0 0 0-.893-3.787M15.99 4.08l-.513.08a1.8 1.8 0 0 0-.577.197l-.49.263-.197.105.095.953c.084.86-.246 1.643-.948 2.172l-.607.455.06.138.237.551c.311.72.218 1.469-.003 2.121l.557.086c.18.028.357.023.54-.013l1-.198a3.6 3.6 0 0 1 1.58.04l.5.124.5.125a.3.3 0 0 0 .203-.018l1-.38q.433-.165.887-.215l-.953-2.042 1.056.602a2.38 2.38 0 0 1-.103-1.513l.142-.561.05-.2-.166-.108-.482-.312a5 5 0 0 1-1.058-.9l-.292-.338-.291-.338a2.5 2.5 0 0 0-.455-.405l-.777-.546z"/></svg>